<svg width="79" height="28" viewBox="0 0 79 28" fill="none" xmlns="http://www.w3.org/2000/svg">
<path d="M3.75589 5.00559V16.362C3.75589 17.0294 4.06099 17.4778 4.67119 17.7073C4.83953 17.7698 5.01838 17.8011 5.20775 17.8011H7.60647C8.30084 17.8011 8.76375 17.4778 8.99521 16.8313C9.05833 16.6436 9.08989 16.4559 9.08989 16.2682V12.0134L12.7827 12.7955V21.6492C12.7827 23.3177 11.8253 24.6317 9.91051 25.5911C9.06885 26.0082 8.15355 26.2898 7.1646 26.4358L5.77587 24.5899C7.29085 23.86 8.25876 23.0257 8.67958 22.0872C8.95312 21.4615 9.08989 20.6793 9.08989 19.7408V19.3966C8.52177 20.1475 7.74324 20.5333 6.7543 20.5542H2.90372C1.85164 20.5542 1.03103 20.1058 0.44187 19.2089C0.14729 18.7292 0 18.2078 0 17.6447V5.85028C0 3.93147 0.915302 2.46108 2.7459 1.43911C3.90318 0.792551 5.16567 0.469274 6.53336 0.469274C8.89 0.469274 10.6364 1.13669 11.7727 2.47151C12.0252 2.78436 12.2356 3.10764 12.4039 3.44134L8.64802 4.69274C8.64802 3.56648 8.04834 2.89907 6.84898 2.6905C6.63857 2.64879 6.42815 2.62793 6.21774 2.62793C5.35504 2.62793 4.67119 2.99292 4.1662 3.72291C3.89266 4.11918 3.75589 4.54674 3.75589 5.00559Z" fill="#222032"/>
<path d="M19.1266 14.9855C21.2097 14.902 22.2723 13.3169 22.3144 10.2302C20.2313 10.3136 19.1687 11.8987 19.1266 14.9855ZM21.0204 8.35307C23.1876 8.35307 24.7342 9.11434 25.66 10.6369C25.7863 10.8872 25.902 11.1374 26.0072 11.3877C26.0072 13.0562 25.3128 14.4536 23.9241 15.5799C22.872 16.435 21.7147 16.8626 20.4523 16.8626L19.1266 15.1106V16.362C19.1266 17.0294 19.4317 17.4778 20.042 17.7073C20.2103 17.7698 20.3891 17.8011 20.5785 17.8011H29.2581C29.2581 18.7397 28.8688 19.5009 28.0903 20.0849C27.6484 20.3978 27.196 20.5542 26.7331 20.5542H18.3376C17.2855 20.5542 16.4649 20.1058 15.8757 19.2089C15.5812 18.7292 15.4339 18.2078 15.4339 17.6447V13.8279C15.4339 12.1385 16.1388 10.7307 17.5485 9.60447C18.6217 8.77021 19.7789 8.35307 21.0204 8.35307ZM23.9241 23.0257L26.6384 25.4034L24.0503 28L21.3044 25.6223L23.9241 23.0257ZM18.0535 23.0257L20.7679 25.4034L18.1798 28L15.4339 25.6223L18.0535 23.0257Z" fill="#222032"/>
<path d="M35.318 14.2034V12.9207C35.318 12.2533 35.0129 11.7944 34.4027 11.5441C34.2133 11.4816 34.0345 11.4503 33.8662 11.4503H31.9409V20.5542C30.5311 20.5542 29.458 20.0953 28.7215 19.1777C28.3638 18.698 28.185 18.187 28.185 17.6447V0L31.9409 0.907263V9.60447C32.4669 9.04134 33.0455 8.74935 33.6768 8.72849H36.1702C37.2433 8.72849 38.0639 9.18734 38.632 10.105C38.9266 10.5847 39.0739 11.0957 39.0739 11.638V15.4547C39.0739 16.2682 38.8635 17.0503 38.4427 17.8011H42.8614C42.8614 18.7188 42.4721 19.4801 41.6936 20.0849C41.2517 20.3978 40.7993 20.5542 40.3364 20.5542H34.8446C34.7815 20.575 34.7183 20.5959 34.6552 20.6168C34.6131 20.6376 34.5605 20.648 34.4974 20.648C34.4553 20.6689 34.3922 20.6898 34.308 20.7106C34.2449 20.7315 34.1923 20.7419 34.1502 20.7419C34.1292 20.7628 34.0766 20.7732 33.9924 20.7732C33.9082 20.794 33.8556 20.8045 33.8346 20.8045C33.8136 20.8253 33.7504 20.8462 33.6452 20.867L33.4874 20.8983L32.0987 19.0212C33.5716 18.3121 34.5184 17.4883 34.9393 16.5497C35.1918 15.9032 35.318 15.121 35.318 14.2034Z" fill="#222032"/>
<path d="M50.2785 1.75196L52.9928 4.12961L50.4047 6.72626L47.6588 4.3486L50.2785 1.75196ZM44.4079 1.75196L47.1223 4.12961L44.5342 6.72626L41.7883 4.3486L44.4079 1.75196ZM45.481 15.048V16.3307C45.481 16.9773 45.7756 17.4257 46.3648 17.676C46.5752 17.7594 46.7751 17.8011 46.9644 17.8011H48.9213V8.69721L52.6772 9.66704V16.3307C52.6772 16.9981 52.9718 17.457 53.5609 17.7073C53.7503 17.7698 53.9292 17.8011 54.0975 17.8011H56.4646C56.4646 18.7397 56.0754 19.5009 55.2968 20.0849C54.855 20.3978 54.4026 20.5542 53.9397 20.5542H52.6772C51.2464 20.5542 50.1733 20.0745 49.4579 19.1151C49.4368 19.0734 49.4158 19.0421 49.3947 19.0212C48.9949 19.8555 48.3847 20.3561 47.5641 20.5229C47.4168 20.5438 47.2801 20.5542 47.1538 20.5542H44.692C43.6399 20.5542 42.8193 20.1058 42.2301 19.2089C41.9355 18.7292 41.7883 18.2078 41.7883 17.6447V13.7966C41.7883 11.8987 42.7667 10.397 44.7235 9.29162C45.5441 8.85363 46.4279 8.54078 47.3748 8.35307L48.7635 10.1989C47.2695 10.9289 46.3122 11.7631 45.8913 12.7017C45.6178 13.3274 45.481 14.1095 45.481 15.048Z" fill="#222032"/>
<path d="M58.9896 26.6235C57.6009 26.6235 56.5383 26.1542 55.8018 25.2156C55.4231 24.7359 55.2337 24.225 55.2337 23.6827V1.8771L58.9896 2.84693V22.4C58.9896 23.0674 59.2947 23.5158 59.9049 23.7453C60.0732 23.8078 60.2521 23.8391 60.4415 23.8391H62.7771C62.7771 24.7568 62.3878 25.5181 61.6093 26.1229C61.1674 26.4566 60.715 26.6235 60.2521 26.6235H58.9896Z" fill="#222032"/>
<path d="M63.5977 1.75196L66.312 4.12961L63.7239 6.72626L60.978 4.3486L63.5977 1.75196ZM65.5861 20.5542C64.1763 20.5542 63.1032 20.0953 62.3668 19.1777C62.0091 18.698 61.8302 18.187 61.8302 17.6447V8.69721L65.5861 9.66704V16.6749C65.7334 17.2588 66.0911 17.6238 66.6592 17.7698C66.7855 17.7907 66.9012 17.8011 67.0064 17.8011H69.3736C69.3736 18.7397 68.9843 19.5009 68.2058 20.0849C67.7639 20.3978 67.3115 20.5542 66.8486 20.5542H65.5861Z" fill="#222032"/>
<path d="M73.8554 8.35307C74.9285 8.35307 76.0858 8.68678 77.3272 9.35419C78.4214 9.97989 78.979 10.616 79 11.2626V15.1106C79 16.8 78.2951 18.2078 76.8853 19.3341C75.8543 20.1475 74.7076 20.5542 73.4451 20.5542C72.372 20.5542 71.2147 20.2205 69.9732 19.5531C68.858 18.9274 68.2899 18.2912 68.2689 17.6447V13.7966C68.2689 12.1281 68.9738 10.7307 70.3835 9.60447C71.4567 8.77021 72.6139 8.35307 73.8554 8.35307ZM75.3072 11.1061C73.4977 11.1061 72.4246 11.9196 72.0879 13.5464C72.0037 13.9844 71.9616 14.4849 71.9616 15.048V17.8011C73.7712 17.8011 74.8443 16.9877 75.181 15.3609C75.2652 14.9229 75.3072 14.4223 75.3072 13.8592V11.1061Z" fill="#222032"/>
</svg>
