<svg width="750" height="750" viewBox="0 0 750 750" fill="none" xmlns="http://www.w3.org/2000/svg">
<path fill-rule="evenodd" clip-rule="evenodd" d="M512.128 547.68C403.891 569.992 333.667 505.742 190.711 505.742C141.86 505.742 23.7806 533.251 42.0633 363.259C52.4381 266.795 164.257 223.016 268.755 279.398C299.505 291.423 323.782 287.696 350.14 275.748C376.498 263.8 410.398 210.46 474.29 199.486C666.561 166.464 879.432 471.966 512.128 547.68Z" fill="#64FCD9"/>
<path fill-rule="evenodd" clip-rule="evenodd" d="M508.187 329.652C515.722 334.614 523.288 339.863 531.96 342.355C540.631 344.847 550.822 344.085 557.499 338.018C584.446 313.534 627.841 309.44 658.89 328.453C689.94 347.465 706.022 387.978 696.464 423.11C686.907 458.241 652.518 485.024 616.116 485.686C597.255 486.03 579.814 495.046 561.791 500.618C543.769 506.191 522.093 507.621 507.999 495.082C492.808 481.569 494.542 453.723 511.292 442.199C484.97 444.171 458.648 446.143 432.326 448.115C438.116 450.463 444.28 453.116 447.599 458.408C450.918 463.701 449.396 472.36 443.35 473.933C420.834 479.79 397.779 469.116 376.167 460.501C354.555 451.886 328.512 445.559 309.24 458.594C265.808 487.969 208.428 483.092 156.699 474.526C144.289 472.471 129.36 467.951 126.78 455.639C103.028 460.11 78.806 462.081 54.6434 461.509C48.7454 461.369 41.7827 460.44 39.0262 455.224C35.4546 448.465 41.866 440.797 48.11 436.387C67.1776 422.92 90.4574 415.51 113.801 415.479C120.451 415.47 124.89 408.521 126.583 402.091C128.276 395.661 128.75 388.505 133.068 383.449C118.385 381.245 102.83 385.727 91.5721 395.406C89.4825 397.202 85.9554 395.399 85.0783 392.786C84.2012 390.174 85.1048 387.333 86.0325 384.738C91.2273 370.209 97.7405 355.447 109.547 345.513C121.353 335.579 139.8 331.995 152.246 341.115C156.15 343.976 162.78 347.649 172.134 352.132C181.725 350.682 188.856 349.528 193.528 348.669C207.677 346.068 220.796 339.642 233.621 333.126C278.312 310.419 324.135 285.138 374.244 283.712C422.18 282.347 468.135 303.277 508.187 329.652ZM558.9 369.017L563.396 380.343C563.617 380.898 563.855 381.478 564.319 381.854C564.883 382.309 565.655 382.37 566.372 382.474C571.868 383.265 576.175 387.439 580.071 391.396C585.06 396.465 590.05 401.534 595.04 406.603C596.535 408.122 599.019 406.48 600.451 404.9C603.668 401.35 606.946 397.708 608.804 393.292C610.661 388.875 610.862 383.459 608.093 379.549C606.448 377.225 603.942 375.658 601.373 374.43C597.133 372.403 592.534 371.132 587.855 370.693C583.293 370.266 578.698 370.625 574.115 370.591C569.009 370.554 563.906 370.026 558.9 369.017Z" fill="white"/>
<path fill-rule="evenodd" clip-rule="evenodd" d="M126.78 455.64C103.028 460.111 78.8061 462.082 54.6436 461.509C47.6901 451.376 122.935 432.706 125.663 445.014C127.821 454.747 127.92 461.076 126.78 455.64Z" fill="#E7EAEE"/>
<path fill-rule="evenodd" clip-rule="evenodd" d="M491.175 422.811C493.713 422.539 503.8 420.067 514.391 421.213C520.082 418.291 547.356 420.586 563.636 423.776C574.086 425.823 600.571 427.184 610.189 432.09C626.884 440.606 627.267 445.87 624.755 446.998C617.62 450.2 609.023 451.779 604.402 451.864C596.082 452.015 579.345 444.325 560.986 439.508C552.787 437.356 546.762 435.529 542.014 433.756L542.789 433.417C532.519 438.053 521.895 438.792 511.292 442.199C484.97 444.171 458.648 446.143 432.326 448.116C438.116 450.463 351.009 418.748 376.167 414.121C377.718 413.836 379.427 413.662 381.281 413.585C404.841 412.597 451.652 427.035 491.175 422.811Z" fill="#E7EAEE"/>
<path fill-rule="evenodd" clip-rule="evenodd" d="M256.104 383.659C256.425 384.232 256.182 384.995 255.7 385.442C255.218 385.889 254.555 386.082 253.909 386.203C249.151 387.097 243.952 384.501 241.806 380.161C241.567 379.677 241.358 379.145 241.431 378.611C241.504 378.076 241.954 377.558 242.492 377.59C243.878 379.118 245.283 380.664 247.008 381.795C248.733 382.926 250.841 383.616 252.87 383.243C254.021 383.031 255.532 382.638 256.104 383.659V383.659Z" fill="#00160A"/>
<path fill-rule="evenodd" clip-rule="evenodd" d="M259.223 442.866C259.29 441.526 260.969 440.966 262.309 440.916C268.316 440.693 273.91 443.638 279.458 445.951C285.005 448.265 291.466 449.971 296.884 447.368C298.015 446.825 299.2 446.082 300.427 446.345C298.392 450.292 293.527 452.084 289.092 451.841C284.658 451.598 280.502 449.722 276.413 447.988C272.324 446.254 268.023 444.605 263.589 444.852C262.679 444.903 261.748 445.032 260.871 444.784C259.995 444.537 259.177 443.776 259.223 442.866Z" fill="#00160A"/>
<path fill-rule="evenodd" clip-rule="evenodd" d="M269.738 454.108C265.595 452.899 260.75 453.504 257.347 450.849C256.931 450.525 256.521 450.099 256.504 449.572C256.482 448.833 257.278 448.292 258.017 448.273C258.756 448.254 259.45 448.591 260.144 448.846C262.678 449.777 265.467 449.652 268.112 450.191C272.08 451 275.574 453.262 279.312 454.821C283.049 456.38 287.532 457.178 291.012 455.107C292.416 454.272 294.261 453.025 295.425 454.171C291.636 458.487 285.222 460.286 279.742 458.569C276.252 457.476 273.249 455.132 269.738 454.108Z" fill="#00160A"/>
<path fill-rule="evenodd" clip-rule="evenodd" d="M150.328 410.414C149.662 409.562 149.667 408.325 150.092 407.331C150.518 406.337 151.298 405.541 152.104 404.821C155.933 401.4 161.232 399.085 166.203 400.371C169.928 401.334 172.875 404.127 175.484 406.956C176.6 408.167 177.753 409.902 176.917 411.321C176.024 412.837 173.782 412.516 172.084 412.056C166.813 410.627 161.227 409.785 155.901 410.99C153.968 411.428 151.548 411.974 150.328 410.414V410.414Z" fill="#00160A"/>
<path fill-rule="evenodd" clip-rule="evenodd" d="M236.653 461.765C237.387 462.209 237.286 463.395 236.674 463.996C236.062 464.598 235.16 464.771 234.314 464.916C229.572 465.729 224.831 466.542 220.089 467.355C219.099 467.525 217.992 467.671 217.167 467.099C216.341 466.527 216.317 464.936 217.3 464.729C223.245 463.474 229.237 462.442 235.259 461.636C235.731 461.573 236.245 461.519 236.653 461.765V461.765Z" fill="#00160A"/>
<path fill-rule="evenodd" clip-rule="evenodd" d="M224.553 412.221C223.51 412.607 222.358 411.6 222.217 410.497C222.076 409.393 222.647 408.325 223.308 407.43C226.383 403.265 231.865 401.133 237.002 401.773C242.14 402.414 246.807 405.669 249.505 410.087C249.922 410.769 250.308 411.552 250.15 412.335C249.979 413.183 249.186 413.798 248.347 414.007C247.508 414.217 246.625 414.097 245.772 413.95C242.225 413.336 238.766 412.274 235.216 411.677C231.665 411.079 227.928 410.968 224.553 412.221Z" fill="#00160A"/>
<path fill-rule="evenodd" clip-rule="evenodd" d="M157.505 383.721C157.909 382.539 159.618 382.831 160.843 383.075C164.662 383.832 168.397 381.703 171.71 379.658C172.152 379.385 172.741 379.904 172.731 380.424C172.721 380.943 172.347 381.376 171.982 381.746C168.679 385.084 163.74 387.367 159.274 385.915C158.276 385.59 157.166 384.714 157.505 383.721Z" fill="#00160A"/>
<path fill-rule="evenodd" clip-rule="evenodd" d="M290.149 403.951C288.861 403.706 288.193 402.142 288.434 400.853C288.675 399.564 289.55 398.5 290.376 397.481C293.496 393.633 296.34 389.541 298.581 385.122C300.508 381.322 301.984 377.293 304.151 373.624C310.352 363.128 322.377 356.342 334.568 356.461C329.683 352.964 323.908 350.896 318.058 349.527C299.964 345.294 280.414 347.591 263.795 355.903C261.168 357.217 258.606 358.678 255.866 359.737C254.603 360.226 253.205 360.629 251.91 360.229C250.616 359.829 249.6 358.304 250.202 357.091C250.549 356.391 251.297 356 251.997 355.654C259.078 352.16 266.188 348.654 273.693 346.201C290.483 340.714 309.034 340.77 325.79 346.357C331.413 348.231 337.289 351.144 339.723 356.548C340.097 357.377 340.131 358.702 339.232 358.838C329.576 360.293 319.751 363.634 313.086 370.771C304.454 380.014 302.363 394.207 293.003 402.711C292.205 403.435 291.207 404.153 290.149 403.951V403.951Z" fill="#00160A"/>
<path fill-rule="evenodd" clip-rule="evenodd" d="M432.326 448.115C438.116 450.463 444.28 453.116 447.599 458.408C450.918 463.701 449.396 472.36 443.35 473.933C420.834 479.79 397.779 469.116 376.167 460.501C354.555 451.886 328.512 445.559 309.24 458.594C265.808 487.969 208.428 483.092 156.699 474.526C144.289 472.471 129.36 467.951 126.78 455.639C103.028 460.11 78.806 462.081 54.6434 461.509C48.7454 461.369 41.7827 460.44 39.0262 455.224C35.4546 448.465 41.866 440.797 48.11 436.387C67.1776 422.92 90.4574 415.51 113.801 415.479C120.451 415.47 124.89 408.521 126.583 402.091C128.276 395.661 128.75 388.505 133.068 383.449C118.385 381.245 102.83 385.727 91.5721 395.406C89.4825 397.202 85.9554 395.399 85.0783 392.786C84.2012 390.174 85.1048 387.333 86.0325 384.738C91.2273 370.209 97.7405 355.447 109.547 345.513C121.353 335.579 134.421 331.808 152.165 339.888C156.812 342.004 163.448 345.764 172.075 351.168C181.609 350.378 188.76 349.545 193.528 348.669C207.677 346.068 220.796 339.642 233.621 333.126C278.312 310.419 324.135 285.138 374.244 283.712C422.18 282.347 468.135 303.277 508.187 329.652C515.722 334.614 523.288 339.863 531.96 342.355C540.631 344.847 550.822 344.085 557.499 338.018C584.446 313.534 627.841 309.44 658.89 328.453C689.94 347.465 706.022 387.978 696.464 423.11C686.907 458.241 652.518 485.024 616.116 485.686C597.255 486.03 579.814 495.046 561.791 500.618C543.769 506.191 522.093 507.621 507.999 495.082C492.808 481.569 494.542 453.723 511.292 442.199C484.97 444.171 458.648 446.143 432.326 448.115ZM584.69 399.555C571.407 386.194 551.589 379.661 532.964 382.502C541.982 379.7 551.645 378.994 560.974 380.456C534.529 342.266 491.85 318.412 448.35 302.116C427.21 294.196 405.195 287.686 382.626 287.188C353.245 286.539 324.61 296.089 297.472 307.367C267.686 319.744 238.874 334.324 210.094 348.889C218.974 348.435 227.974 352.337 233.713 359.129C209.607 349.189 181.054 350.721 158.151 363.185C158.261 358.631 161.9 354.411 166.387 353.632C153.282 342.084 133.148 339.282 117.387 346.81C101.626 354.339 91.1532 371.762 91.8996 389.213C105.21 378.205 124.408 374.801 140.692 380.561C131 396.734 125.996 415.681 126.439 434.531C131.532 432.385 137.808 433.394 141.972 437.028C137.32 437.529 132.667 438.029 128.015 438.529C128.212 440.652 128.408 442.775 128.605 444.898C133.528 444.172 138.451 443.447 143.373 442.721C140.205 446.365 135.738 448.856 130.972 449.635C130.374 455.7 134.583 461.422 139.865 464.462C145.146 467.501 151.349 468.408 157.383 469.258C172.422 471.376 187.462 473.495 202.501 475.614C199.013 471.68 198.442 465.346 196.165 460.967C193.216 455.296 188.957 452.986 186.822 445.461C186.086 442.865 184.388 439.21 186.764 437.56C187.762 436.866 189.061 436.84 190.277 436.839C195.241 436.833 200.206 436.828 205.17 436.823C206.775 436.821 208.452 436.837 209.87 437.587C214.167 439.859 212.81 446.572 209.601 450.223C206.392 453.874 201.804 456.79 200.708 461.526C199.582 466.39 202.857 471.433 207.207 473.885C211.556 476.337 216.732 476.753 221.722 476.923C232.24 477.283 242.786 476.796 253.226 475.467C279.507 472.124 307.507 461.414 319.705 437.897C318.967 443.825 315.87 449.426 311.241 453.202C330.388 446.149 352.072 446.228 371.168 453.421C389.278 460.242 406.461 473.415 425.667 471.05C424.844 470.383 424.525 469.229 423.702 468.562C421.461 466.745 418.717 465.414 416.476 463.597C423.324 466.102 430.172 468.606 437.02 471.111C436.242 469.972 437.02 468.823 435.571 467.081C434.123 465.339 430.959 462.231 429.095 459.499C434.281 461.008 438.826 464.607 441.484 469.309C443.7 468.767 445.916 468.225 448.132 467.683C436.881 452.495 421.326 440.532 403.759 433.557C395.236 430.172 384.67 426.122 383.604 417.013C402.761 435.514 430.214 443.406 456.84 443.969C483.466 444.533 509.738 438.483 535.682 432.469C529.742 429.467 524.387 425.314 520 420.309C549.139 436.635 581.742 446.745 615.006 449.769C613.119 446.571 611.232 443.372 609.346 440.174C613.472 440.292 617.328 443.422 618.291 447.436C620.361 446.621 622.43 445.806 624.499 444.991C621.621 442.169 618.743 439.348 615.865 436.526C620.494 435.41 625.689 438.98 626.306 443.703C628.243 442.695 629.842 441.05 630.794 439.085C627.352 436.479 623.91 433.874 620.468 431.268C625.686 431.162 630.922 432.908 635.032 436.123C630.17 424.302 613.717 424.02 602.788 417.391C595.519 412.982 590.684 405.584 584.69 399.555ZM559.948 365.59C566.449 367.166 573.256 365.946 579.945 365.966C586.876 365.986 593.779 367.361 600.273 369.782C604.281 371.277 608.288 373.285 610.894 376.678C615.025 382.056 614.665 389.857 611.783 395.995C608.901 402.134 603.914 406.986 599.032 411.693C609.28 416.265 619.528 420.836 629.776 425.408C632.672 426.7 635.802 428.216 637.126 431.097C639.415 436.078 634.971 441.543 630.406 444.579C616.165 454.052 596.797 455.213 581.525 447.512C571.728 442.571 560.867 440.214 550.14 437.904C544.283 436.642 538.183 435.382 532.365 436.809C528.236 437.822 524.343 440.17 520.094 440.025C516.297 439.896 513.345 443.175 511.12 446.254C503.799 456.387 497.763 469.335 502.05 481.077C504.997 489.151 512.466 494.968 520.605 497.728C528.745 500.487 537.542 500.566 546.12 500.02C556.855 499.336 567.792 497.633 577.22 492.451C583.358 489.077 588.852 484.243 595.642 482.521C603.789 480.457 612.372 483.227 620.754 482.615C627.429 482.128 633.746 479.515 639.857 476.787C654.786 470.125 669.717 462.259 680.306 449.804C696.096 431.232 699.851 404.017 692.306 380.836C684.762 357.655 666.933 338.596 645.595 326.808C639.728 323.567 633.551 320.813 627.047 319.196C611.433 315.313 594.343 318.371 580.698 326.896C573.673 331.285 567.569 337.005 560.685 341.613C553.802 346.221 545.71 349.77 537.465 348.965C543.819 355.987 550.744 363.359 559.948 365.59ZM68.4965 429.081C58.9323 432.81 49.3624 437.758 43.3008 446.043C46.0898 444.506 49.5918 444.335 52.5169 445.594C50.3846 446.647 48.2523 447.701 46.1199 448.754C44.9254 449.345 43.6906 449.967 42.861 451.009C42.0313 452.052 41.7313 453.643 42.5345 454.707C43.3377 455.77 45.3691 455.672 45.7576 454.398C47.1833 449.721 52.6884 446.732 57.3866 448.084C53.858 450.094 50.0049 452.516 49.0285 456.458C49.5561 458.233 52.1565 458.526 53.6849 457.478C55.2132 456.431 55.976 454.617 56.8549 452.986C57.7339 451.355 59.0104 449.685 60.8436 449.417C61.2305 449.36 61.6727 449.39 61.9413 449.674C62.4096 450.169 62.023 450.979 61.5824 451.499C60.5841 452.677 59.31 453.709 58.8192 455.173C58.3284 456.637 59.2055 458.684 60.7468 458.59C82.3894 457.268 103.991 455.278 125.511 452.625C126.289 450.941 123.926 449.573 122.088 449.324C117.422 448.691 112.622 449.064 108.11 450.411C108.943 447.638 111.744 445.822 114.593 445.302C117.441 444.782 120.365 445.317 123.211 445.851C123.233 443.852 122.86 441.85 122.119 439.993C117.594 439.898 113.109 438.387 109.449 435.723C112.508 434.579 116.062 434.84 118.921 436.418C120.286 437.172 121.303 434.966 121.326 433.407C121.399 428.339 121.472 423.271 121.546 418.203C103.418 418.798 85.3954 422.493 68.4965 429.081ZM566.372 382.474C571.868 383.265 576.175 387.439 580.071 391.396C585.06 396.465 590.05 401.534 595.04 406.603C596.535 408.122 599.019 406.48 600.451 404.9C603.668 401.35 606.946 397.708 608.804 393.292C610.661 388.875 610.862 383.459 608.093 379.549C606.448 377.225 603.942 375.658 601.373 374.43C597.133 372.403 592.534 371.132 587.855 370.693C583.293 370.266 578.698 370.625 574.115 370.591C569.009 370.554 563.906 370.026 558.9 369.017C560.399 372.792 561.898 376.568 563.396 380.343C563.617 380.898 563.855 381.478 564.319 381.854C564.883 382.309 565.655 382.37 566.372 382.474Z" fill="#00160A"/>
<path d="M295.953 557.766C298.391 559.672 301.219 560.625 304.438 560.625C308.312 560.625 311.625 559.25 314.375 556.5C317.125 553.75 318.5 550.438 318.5 546.562V523.125C318.5 522.531 318.469 521.953 318.406 521.391L295.953 557.766ZM290.469 548.297L312.922 511.922C310.484 510.016 307.656 509.062 304.438 509.062C300.562 509.062 297.25 510.438 294.5 513.188C291.75 515.938 290.375 519.25 290.375 523.125V546.562C290.375 547.156 290.406 547.734 290.469 548.297ZM324.688 511.219C326.812 514.75 327.875 518.719 327.875 523.125V546.562C327.875 553.031 325.578 558.562 320.984 563.156C316.422 567.719 310.906 570 304.438 570C299.406 570 294.938 568.609 291.031 565.828C290.469 566.891 289.797 567.812 289.016 568.594C288.078 569.531 286.969 570 285.688 570C284.406 570 283.297 569.547 282.359 568.641C281.453 567.703 281 566.594 281 565.312C281 564.031 281.625 562.469 282.875 560.625L284.188 558.469C282.062 554.938 281 550.969 281 546.562V523.125C281 516.656 283.281 511.141 287.844 506.578C292.438 501.984 297.969 499.688 304.438 499.688C309.469 499.688 313.938 501.078 317.844 503.859C318.406 502.797 319.094 501.859 319.906 501.047C320.812 500.141 321.906 499.688 323.188 499.688C324.469 499.688 325.562 500.156 326.469 501.094C327.406 502 327.875 503.094 327.875 504.375C327.875 505.656 327.25 507.219 326 509.062L324.688 511.219Z" fill="black"/>
</svg>
