<svg width="750" height="750" viewBox="0 0 750 750" fill="none" xmlns="http://www.w3.org/2000/svg">
<path fill-rule="evenodd" clip-rule="evenodd" d="M597.177 207.491C500.256 151.873 424.687 315.131 369.799 335.683C259.179 377.103 53.7133 413.128 92.8977 493.654C146.701 604.223 333.905 615.255 467.778 604.223C641.906 589.873 787.732 316.84 597.177 207.491Z" fill="#64FCD9"/>
<path fill-rule="evenodd" clip-rule="evenodd" d="M583.124 385.7C584.122 386.581 584.462 387.96 584.711 389.28L586.23 397.565C586.441 398.717 587.408 399.262 587.78 398.606C588.174 397.912 589.226 398.2 589.931 398.575L598.733 403.259C595.738 405.408 592.205 406.801 588.55 407.273C586.747 407.505 586.456 409.974 586.648 411.781L587.169 416.697C587.331 418.228 584.922 418.749 583.718 417.788C582.514 416.827 582.058 415.218 581.109 414.004C579.577 412.044 576.869 411.313 574.391 411.54C571.913 411.767 569.592 412.806 567.325 413.83C565.863 414.491 564.255 412.741 564.369 411.141C564.47 409.729 565.373 408.545 566.294 407.444L566.661 407.007C567.695 405.78 568.728 404.326 568.553 402.731C568.408 401.403 567.46 400.334 566.509 399.379L565.952 398.82C565.07 397.919 564.233 396.917 564.079 395.685C563.902 394.277 565.188 392.655 566.538 393.092C571.74 394.773 578.003 391.495 579.586 386.263C579.998 384.903 582.058 384.76 583.124 385.7Z" fill="white"/>
<path fill-rule="evenodd" clip-rule="evenodd" d="M583.124 385.7C584.122 386.581 584.462 387.96 584.711 389.28L586.23 397.565C586.441 398.717 585.977 400.5 584.878 400.097C583.312 396.776 582.479 393.112 582.454 389.441C581.857 388.867 580.968 389.721 580.596 390.461L576.882 397.861C576.228 399.164 574.276 398.876 572.987 398.195L572.297 397.83C571.178 397.25 569.961 396.736 568.901 397.308C568.36 398.928 570.765 399.736 572.013 400.903C573.438 402.234 573.354 404.626 572.358 406.303C571.361 407.979 569.678 409.11 568.049 410.183C570.389 410.569 572.884 409.885 574.7 408.361C575.521 407.672 576.272 406.788 577.321 406.569C578.943 406.23 580.4 407.636 581.242 409.064C582.084 410.491 582.751 412.162 584.189 412.986C584.91 411.851 584.525 410.427 584.071 409.115L583.855 408.503C583.335 407.037 583.101 405.094 584.377 404.204C584.857 403.869 585.453 403.771 586.04 403.707L592.317 403.079L588.701 400.444C588.092 400 587.408 399.262 587.78 398.606C588.174 397.912 589.226 398.2 589.931 398.575L598.733 403.259C595.738 405.408 592.205 406.801 588.55 407.273C586.747 407.505 586.456 409.974 586.648 411.781L587.169 416.697C587.331 418.228 584.922 418.749 583.718 417.788C582.514 416.827 582.058 415.218 581.109 414.004C579.577 412.044 576.869 411.313 574.391 411.54C571.913 411.767 569.592 412.806 567.325 413.83C565.863 414.491 564.255 412.741 564.369 411.141C564.47 409.729 565.373 408.545 566.294 407.444L566.661 407.007C567.695 405.78 568.728 404.326 568.553 402.731C568.408 401.403 567.46 400.334 566.509 399.379L565.952 398.82C565.07 397.919 564.233 396.917 564.079 395.685C563.902 394.277 565.188 392.655 566.538 393.092C571.74 394.773 578.003 391.495 579.586 386.263C579.998 384.903 582.058 384.76 583.124 385.7Z" fill="#FFB61D"/>
<path fill-rule="evenodd" clip-rule="evenodd" d="M236.825 237.128C233.058 220.389 243.32 192.605 261.654 181.433C279.988 170.262 303.439 169.496 323.858 176.13C323.206 156.405 343.21 139.479 362.879 141.109C382.547 142.738 398.866 160.397 401.509 179.955C403.568 195.194 395.745 213.346 380.617 216.107C385.965 235.213 388.938 255.315 386.003 274.937C383.068 294.559 373.73 313.727 357.971 325.781C353.62 331.633 356.906 340.462 362.634 344.975C368.362 349.489 375.775 351.076 382.629 353.567C411.347 364.004 431.567 392.337 436.28 422.528C440.993 452.718 431.579 484.029 414.566 509.411C402.914 526.796 387.062 542.236 367.229 548.922C339.392 558.307 308.87 549.169 281.839 537.666C271.535 533.281 261.042 528.298 253.768 519.783C245.971 510.655 231.233 515.585 220.606 521.168C227.672 524.1 234.739 527.032 241.805 529.964C243.324 530.594 244.971 531.343 245.675 532.828C247.158 535.955 243.506 538.964 240.415 540.521C237.094 542.193 233.773 543.866 230.451 545.538C210.065 555.804 188.832 566.293 166.015 566.927C141.069 567.62 117.506 556.471 95.0547 545.574C92.5593 544.363 89.9141 543.014 88.5572 540.595C87.2003 538.176 87.9588 534.403 90.6405 533.694C115.826 527.033 139.672 515.343 160.362 499.513C158.779 489.658 159.152 479.493 161.453 469.781C161.786 468.377 162.265 466.836 163.516 466.117C166.594 464.349 169.267 469.007 169.811 472.514C171.184 481.368 172.556 490.221 173.929 499.074C190.411 497.251 206.407 491.197 219.965 481.65C209.39 473.134 198.815 464.617 188.24 456.101C182.139 451.187 176.249 448.248 172.954 438.626C170.757 432.211 172.53 425.622 178.273 418.857C171.862 386.907 169.057 362.822 169.857 346.603C170.071 342.274 170.556 337.6 173.47 334.391C178.613 328.727 188.713 331.17 193.408 337.211C198.103 343.253 198.889 351.36 199.496 358.987C217.373 356.803 235.25 354.619 253.127 352.435C259.667 351.636 266.44 350.855 272.735 352.802C280.633 355.244 286.976 362.161 288.727 370.24C296.27 368.201 304.487 365.69 308.747 359.139C313.007 352.589 309.399 341.195 301.592 341.533C277.171 342.589 253.288 324.468 247.73 300.665C246.316 294.611 245.767 287.884 241.517 283.347C234.783 276.157 229.651 266.888 229.684 257.037C229.717 247.186 233.844 246.011 236.825 237.128ZM91.0532 540.293C91.6031 541.115 92.5627 541.545 93.4716 541.934C102.797 545.925 112.123 549.916 121.448 553.907C125.691 555.723 129.948 557.544 134.386 558.813C146.761 562.354 160.096 561.491 172.401 565.271C173.893 565.729 175.495 565.256 176.981 564.777C187.713 561.32 198.318 557.472 208.769 553.242C219.703 548.816 230.538 543.934 240.246 537.234C241.129 536.624 242.046 535.947 242.449 534.952C242.852 533.958 242.48 532.575 241.448 532.282C234.897 530.421 228.44 528.226 222.112 525.708C220.077 524.899 217.787 523.745 217.355 521.599C211.781 521.823 206.905 525.339 202.793 529.11C198.681 532.881 194.818 537.139 189.751 539.475C184.684 541.811 177.884 541.61 174.374 537.273C173.999 536.809 173.622 536.277 173.046 536.126C172.469 535.975 171.729 536.549 171.998 537.081C172.694 538.459 171.199 540.201 169.658 540.105C168.118 540.009 166.913 538.606 166.534 537.11C166.155 535.614 164.097 538.287 161.113 538.732C158.13 539.176 154.965 537.262 153.975 534.413C153.158 532.066 149.956 532.024 147.51 531.585C141.947 530.586 137.722 524.757 138.505 519.159C122.517 524.491 106.82 530.692 91.5046 537.725C90.6062 538.138 90.5034 539.472 91.0532 540.293Z" fill="white"/>
<path d="M315.5 310C320.194 310 324 306.194 324 301.5C324 296.806 320.194 293 315.5 293C310.806 293 307 296.806 307 301.5C307 306.194 310.806 310 315.5 310Z" fill="#FFB61D"/>
<path d="M256.5 303C258.985 303 261 300.985 261 298.5C261 296.015 258.985 294 256.5 294C254.015 294 252 296.015 252 298.5C252 300.985 254.015 303 256.5 303Z" fill="#FFB61D"/>
<path fill-rule="evenodd" clip-rule="evenodd" d="M356.092 335.615C356.871 339.655 359.185 343.569 362.265 345.997C367.993 350.51 380.867 355.158 387.721 357.649C388.345 357.875 384.828 359.862 380.289 364.253C367.999 376.143 341.126 397.433 314.872 386.734C311.804 385.483 309.238 384.044 307.148 382.518C305.223 381.112 322.898 383.137 339.422 380.004C356.036 376.855 371.493 368.533 367.356 361.935C363.467 355.734 352.529 345.23 351.676 339.052C350.54 330.821 355.422 332.143 356.092 335.615Z" fill="#E7EAEE"/>
<path fill-rule="evenodd" clip-rule="evenodd" d="M90.7158 537.956C90.7158 534.658 101.113 531.991 118.886 525.305C131.111 520.706 154.939 507.401 166.662 506.781C174.463 506.369 205.638 517.782 225.983 525.979C236.213 530.1 244.104 532.682 244.104 534.004C244.104 536.66 222.383 549.482 200.183 557.909C189.347 562.022 179.181 565.706 169.857 565.457C141.432 564.699 90.7158 546.303 90.7158 537.956Z" fill="white"/>
<path fill-rule="evenodd" clip-rule="evenodd" d="M492.282 264.093C451.521 281.503 417.47 311.25 385.026 341.501L383.042 343.354C381.149 345.123 378.276 346.972 376.234 345.378L382.538 339.639C415.524 309.67 449.629 279.953 490.442 262.297C521.821 248.722 521.487 251.62 492.282 264.093ZM316.708 554.077L335.829 574.905C336.766 575.925 337.741 577.021 338.004 578.381C338.266 579.742 337.477 581.403 336.099 581.547L296.73 585.664C290.191 586.348 283.523 581.814 281.64 575.514C279.757 569.215 282.771 561.836 288.466 558.551C294.161 555.266 301.973 556.302 306.701 560.871C307.872 562.003 309.928 561.041 310.76 559.641C311.591 558.241 311.77 556.523 312.63 555.14C313.489 553.756 315.606 552.877 316.708 554.077ZM284.96 566.099C282.519 570.732 284.062 577.008 288.241 580.165C290.289 581.711 292.803 582.541 295.336 582.95C298.914 583.527 303.066 583.09 305.367 580.289C306.207 579.266 306.721 578.013 307.073 576.737C308.242 572.491 307.647 567.787 305.458 563.965C304.862 562.925 303.946 561.839 302.748 561.891C302.179 561.915 301.65 562.203 301.083 562.262C300.14 562.359 299.267 561.82 298.408 561.42C293.66 559.209 287.401 561.466 284.96 566.099ZM315.009 558.255C314.257 561.389 312.702 564.328 310.532 566.711C309.921 567.383 310.071 568.42 310.195 569.319C310.798 573.699 309.801 578.281 307.432 582.014C311.313 581.095 315.282 580.546 319.267 580.376C324.73 580.144 330.43 580.582 335.436 578.384C332.762 577.22 330.491 575.15 329.086 572.593C328.26 571.089 327.118 569.788 325.984 568.501L317.278 558.607C316.649 557.892 315.231 557.329 315.009 558.255ZM216.138 558.067C217.386 561.965 222.082 563.302 226.15 564.004L253.298 568.537C259.575 569.585 266.018 570.632 272.26 569.394C273.438 569.16 274.061 571.031 273.284 571.946C272.507 572.861 271.155 572.97 269.954 572.974C264.515 572.992 259.108 572.269 253.726 571.46L247.992 570.586C237.845 569.027 227.702 567.366 217.77 564.782C216.07 564.339 214.309 563.834 213.007 562.653C211.706 561.473 211.029 559.412 211.945 557.913C212.861 556.414 215.602 556.394 216.138 558.067ZM362.879 141.109C382.547 142.738 398.866 160.397 401.509 179.955C403.568 195.194 395.745 213.346 380.617 216.107C385.965 235.213 388.938 255.315 386.003 274.937C383.068 294.559 373.73 313.727 357.971 325.781C353.62 331.633 356.906 340.462 362.634 344.975C368.362 349.489 375.775 351.076 382.629 353.567C411.347 364.004 431.567 392.337 436.28 422.528C440.993 452.718 431.579 484.029 414.566 509.411C402.914 526.796 387.062 542.236 367.229 548.922C339.67 558.213 309.481 549.35 282.651 538.01L281.839 537.666C271.75 533.372 261.479 528.505 254.227 520.311L253.768 519.783C245.971 510.655 231.233 515.585 220.606 521.168L241.805 529.964C243.324 530.594 244.971 531.343 245.675 532.828C247.158 535.955 243.506 538.964 240.415 540.521L227.968 546.787C208.34 556.639 187.907 566.319 166.015 566.927C141.36 567.612 118.054 556.728 95.8383 545.954L94.4286 545.268C92.1273 544.131 89.801 542.813 88.5572 540.595C87.2003 538.176 87.9588 534.403 90.6405 533.694C115.826 527.033 139.672 515.343 160.362 499.513C158.779 489.658 159.152 479.493 161.453 469.781L161.57 469.309C161.902 468.044 162.404 466.757 163.516 466.117C166.594 464.349 169.267 469.007 169.811 472.514L173.929 499.074C190.411 497.251 206.407 491.197 219.965 481.65L187.388 455.413C181.555 450.694 175.649 445.592 172.954 438.626C170.126 431.319 172.401 421.415 179.707 418.588C180.284 390.911 178.825 363.192 175.346 335.729C170.536 363.158 174.402 391.28 178.273 418.857C171.635 395.882 168.761 371.823 169.796 347.93L169.857 346.603C170.071 342.274 170.556 337.6 173.47 334.391C178.613 328.727 188.713 331.17 193.408 337.211C198.103 343.253 198.889 351.36 199.496 358.987L254.356 352.286C260.512 351.549 266.834 350.977 272.735 352.802C280.633 355.244 286.976 362.161 288.727 370.24L290.013 369.889C297.188 367.904 304.728 365.319 308.747 359.139C312.962 352.658 309.474 341.437 301.839 341.526L301.592 341.533C277.171 342.589 253.288 324.468 247.73 300.665C246.316 294.611 245.767 287.884 241.517 283.347C234.783 276.157 229.651 266.888 229.684 257.037C229.717 247.186 235.998 237.027 245.564 234.672C255.13 232.317 266.45 240.298 265.625 250.114C270.266 249.642 275.013 250.246 279.387 251.865C276.893 245.139 283.359 237.715 290.466 236.739C297.573 235.763 304.498 239.313 310.409 243.379C316.319 247.445 321.966 252.232 328.838 254.292L329.154 253.559C330.574 250.244 331.882 246.703 331.167 243.197C330.398 239.433 326.156 236.177 322.722 237.901C320.312 230.994 316.476 224.588 311.525 219.202L297.767 225.688C295.994 223.033 294.909 219.924 294.643 216.743C285.559 221.934 275.699 225.766 265.493 228.07L266.538 220.278L236.039 236.119C231.535 215.127 243.32 192.605 261.654 181.433C279.988 170.262 303.439 169.496 323.858 176.13C323.206 156.405 343.21 139.479 362.879 141.109ZM512.922 483.25C495.351 487.49 478.295 493.857 462.243 502.166L461.082 502.772C452.188 507.458 443.457 513.073 437.882 521.404C441.647 520.752 445.667 521.733 448.707 524.047C450.628 525.509 452.232 527.701 452.118 530.111C452.058 531.361 451.54 532.553 450.84 533.59C448.105 537.642 442.314 539.288 437.857 537.279C433.4 535.271 430.797 529.843 432.021 525.11C413.112 531.565 396.857 545.455 387.512 563.113L387.199 563.709C386.739 564.598 386.177 565.593 385.2 565.814C383.857 566.118 382.662 564.619 382.724 563.244C382.785 561.869 383.666 560.684 384.518 559.603C395.537 545.611 408.414 532.293 424.893 525.54L426.134 525.041C430.022 523.499 434.091 521.985 436.602 518.696C442.691 510.719 451.457 505.244 460.358 500.609C468.324 496.461 476.565 492.841 485.008 489.778C493.481 486.705 502.145 484.198 510.826 481.769L540.237 473.58C532.282 479.171 522.373 480.97 512.922 483.25ZM138.505 519.159C122.517 524.491 106.82 530.692 91.5046 537.725C90.6062 538.138 90.5034 539.472 91.0532 540.293C91.6031 541.115 92.5627 541.545 93.4716 541.934L121.448 553.907C125.691 555.723 129.948 557.544 134.386 558.813C146.761 562.354 160.096 561.491 172.401 565.271C173.893 565.729 175.495 565.256 176.981 564.777C187.713 561.32 198.318 557.472 208.769 553.242C219.703 548.816 230.538 543.934 240.246 537.234C241.129 536.624 242.046 535.947 242.449 534.952C242.852 533.958 242.48 532.575 241.448 532.282C234.897 530.421 228.44 528.226 222.112 525.708L221.673 525.529C219.76 524.729 217.756 523.592 217.355 521.599C211.781 521.823 206.905 525.339 202.793 529.11C198.681 532.881 194.818 537.139 189.751 539.475C184.684 541.811 177.884 541.61 174.374 537.273L174.147 536.99C173.84 536.612 173.507 536.246 173.046 536.126C172.469 535.975 171.729 536.549 171.998 537.081C172.694 538.459 171.199 540.201 169.658 540.105C168.118 540.009 166.913 538.606 166.534 537.11C166.29 536.148 166.312 535.154 166.428 534.162L166.458 533.918C165.773 536.344 163.626 538.357 161.113 538.732C158.13 539.176 154.965 537.262 153.975 534.413C153.158 532.066 149.956 532.024 147.51 531.585C141.947 530.586 137.722 524.757 138.505 519.159ZM176.287 425.731C172.991 431.593 176.052 439.011 180.111 444.373C192.84 461.186 214.16 469.255 228.707 484.522C232.362 488.358 235.548 492.608 238.693 496.875L248.579 510.301C250.396 512.769 252.219 515.244 254.34 517.457C259.868 523.226 267.148 526.948 274.348 530.413C288.956 537.442 303.985 543.902 319.846 547.257C335.708 550.613 352.561 550.727 367.821 545.255C382.105 540.134 394.413 530.311 403.975 518.529C413.31 507.028 420.162 493.696 425.654 479.933L426.053 478.925C426.843 476.918 427.62 474.818 427.456 472.667C427.282 470.392 426.07 468.324 424.656 466.534C419.262 459.711 410.249 455.852 401.617 456.918C393.12 457.968 385.339 463.864 382.227 471.831L382.082 472.212C375.318 490.549 358.474 504.34 339.552 509.234C320.63 514.127 300.049 510.621 282.777 501.473C265.506 492.324 251.412 477.843 240.905 461.363L240.331 460.454C238.433 457.407 236.707 454.201 236.038 450.686C235.303 446.819 236.051 442.47 238.843 439.697C240.688 437.864 243.313 436.789 244.654 434.562C245.996 432.335 244.42 428.402 241.945 429.197L240.294 429.72C228.918 433.259 215.72 436.005 206.568 428.64L205.688 427.936C201.418 424.543 196.855 421.304 191.55 420.137C185.879 418.889 179.132 420.669 176.287 425.731ZM221.634 485.154C207.836 493.872 192.263 499.77 176.151 502.38C174.024 502.725 173.453 505.483 173.419 507.637C173.313 514.485 173.644 521.34 174.411 528.146C176.157 527.324 176.871 525.271 178.06 523.753C179.25 522.235 181.965 521.403 182.885 523.099C183.528 524.283 182.67 525.766 181.575 526.552C180.48 527.337 179.134 527.763 178.158 528.691C175.728 531.001 176.998 535.545 179.958 537.119C182.917 538.694 186.661 537.872 189.498 536.087C192.335 534.301 194.528 531.684 196.933 529.35C202.079 524.357 208.372 520.555 215.186 518.323C223.835 515.49 233.467 515.069 241.077 510.075C241.589 509.739 242.12 509.344 242.313 508.762C242.577 507.968 242.13 507.143 241.656 506.436L232.552 493.216C231.101 491.11 229.432 488.848 226.947 488.245C225.811 487.97 224.6 488.076 223.485 487.724C222.37 487.373 221.32 486.28 221.634 485.154ZM158.069 504.358C154.519 506.015 152.418 509.912 151.95 513.802C151.483 517.692 152.401 521.608 153.492 525.371C154.161 527.68 154.903 529.983 156.01 532.118C156.716 533.479 157.651 534.837 159.065 535.429C160.48 536.021 162.443 535.489 162.903 534.026C163.092 533.423 163.007 532.772 162.898 532.15C162.486 529.812 161.747 527.532 160.709 525.396L160.274 524.531C159.65 523.282 159.062 521.81 159.864 520.72C160.631 519.679 162.513 519.249 162.333 517.97L160.575 505.473C160.524 505.108 160.464 504.722 160.227 504.44C159.727 503.846 158.772 504.03 158.069 504.358ZM439.504 523.633C438.332 523.628 437.099 523.79 436.158 524.488C435.607 524.897 435.191 525.469 434.898 526.089C433.661 528.712 434.802 532.083 437.146 533.791C439.49 535.499 442.737 535.659 445.451 534.636C447.526 533.853 449.522 532.081 449.453 529.865C449.398 528.116 448.07 526.656 446.606 525.698C444.515 524.329 442.004 523.644 439.504 523.633ZM164.729 468.945C164.429 469.168 164.281 469.536 164.154 469.888C162.308 475.009 162.082 480.561 162.133 486.005C162.261 499.654 164.014 513.288 167.345 526.525L167.51 527.169C168.191 529.754 169.122 532.405 171.23 534.004C171.622 513.026 170.261 492.017 167.166 471.265C166.965 469.919 165.822 468.132 164.729 468.945ZM148.106 514.034C147.665 514.157 147.382 514.577 147.162 514.979C145.362 518.263 145.241 522.413 146.846 525.798C147.565 527.315 148.799 528.79 150.468 528.976C151.148 528.129 150.837 526.908 150.456 525.871L150.127 524.992C148.902 521.672 147.896 518.078 148.976 514.74C149.117 514.305 148.547 513.91 148.106 514.034ZM142.101 518.584C140.838 521.39 141.401 524.922 143.473 527.197C144.328 526.323 143.952 524.891 143.66 523.703C143.203 521.845 143.099 519.9 143.357 518.003C143.039 517.536 142.333 518.068 142.101 518.584ZM168.708 418.558C170.622 420.206 171.838 423.763 169.566 424.865C168.11 425.571 166.46 424.539 165.085 423.686C157.941 419.253 148.807 418.926 140.708 421.181C132.608 423.436 125.368 428.03 118.572 432.979C111.804 437.908 105.279 443.317 100.19 449.965C95.1012 456.614 91.5019 464.625 91.2065 472.992C90.8526 483.018 95.1841 492.603 100.193 501.296C103.385 506.836 106.985 512.298 111.94 516.321L112.959 517.126C114.365 518.255 115.808 519.654 115.45 521.352C110.593 521.132 107.067 516.787 104.392 512.726C100.588 506.953 97.1212 500.957 94.0138 494.781C91.43 489.645 89.0683 484.294 88.2833 478.599C86.807 467.888 91.1557 456.997 97.9148 448.558C104.674 440.119 113.669 433.785 122.767 427.943C129.678 423.506 136.791 419.25 144.548 416.554C152.549 413.773 162.291 413.031 168.708 418.558ZM374.024 371.382C362.519 382.121 347.227 388.717 331.522 389.717C324.58 390.158 317.413 389.495 311.132 386.506C304.851 383.518 299.561 377.946 298.101 371.146L297.58 371.307C293.034 372.745 287.829 375.348 287.875 380.033C288.069 399.902 287.606 419.778 286.488 439.617C286.274 443.424 284.824 448.421 281.013 448.309C267.472 447.911 253.843 451.038 241.829 457.298C255.351 478.504 274.581 497.044 298.502 504.811C322.423 512.579 351.273 507.725 368.035 488.975C373.408 482.965 377.363 475.86 381.171 468.742L382.048 467.099C382.857 465.581 383.682 463.777 382.962 462.214C382.502 461.216 383.493 460.179 384.403 459.563C397.779 450.51 417.695 452.966 428.471 464.998C427.617 463.328 428.393 461.027 430.084 460.215C431.428 462.374 431.712 465.16 430.833 467.547C431.415 468.371 432.483 467.046 432.576 466.041C434.012 450.4 433.9 434.618 432.239 419C431.641 413.368 430.827 407.702 428.812 402.409C427.045 397.767 424.39 393.513 421.48 389.488C414.786 380.229 406.647 372.015 397.449 365.236L396.781 364.75C395.323 363.706 393.788 362.744 392.065 362.275C385.244 360.418 379.192 366.559 374.024 371.382ZM281.088 362.385C273.483 364.944 265.248 364.452 257.242 365.005C245.962 365.785 234.833 368.719 224.634 373.602C220.241 375.705 215.992 378.177 211.346 379.639C201.48 382.746 190.17 380.828 181.881 374.641C180.094 388.284 180.621 402.227 183.433 415.696C183.614 416.561 184.183 417.668 185.028 417.408C190.635 415.686 196.665 418.122 201.649 421.212C206.634 424.302 211.319 428.155 216.981 429.684C223.623 431.478 230.662 429.82 237.237 427.736L237.729 427.579C241.099 426.497 245.458 425.595 247.619 428.398C249.441 430.762 248.29 434.294 246.361 436.572C244.431 438.849 241.814 440.543 240.24 443.079C238.307 446.194 238.297 450.4 240.215 453.524C252.771 448.488 266.21 445.663 279.731 445.217C282.442 445.128 283.393 441.619 283.56 438.911C285.02 415.183 285.468 391.394 284.903 367.628C284.843 365.095 283.489 361.577 281.088 362.385ZM484.373 426.547L484.911 426.817C488.24 428.509 491.784 430.764 492.28 434.41C492.443 435.61 492.238 436.831 491.952 438.008C491.557 439.639 490.955 441.312 489.688 442.411C488.344 443.576 486.456 443.907 484.679 443.838C481.179 443.702 477.676 442.072 475.649 439.215C473.622 436.359 473.295 432.274 475.187 429.326C477.078 426.378 481.235 424.992 484.373 426.547ZM479.182 430.626C477.108 431.492 476.36 434.297 477.226 436.372C478.092 438.446 480.148 439.811 482.285 440.511C484.47 441.226 487.284 441.168 488.586 439.273C489.02 438.642 489.225 437.882 489.344 437.127C489.605 435.481 489.447 433.659 488.387 432.373C487.074 430.781 484.833 430.461 482.739 430.342L482.219 430.316C481.194 430.271 480.129 430.231 479.182 430.626ZM217.287 387.74C217.55 388.735 217.348 389.787 217.169 390.801C215.906 397.943 215.815 405.292 216.897 412.464L217.097 413.734C217.229 414.632 217.283 415.579 216.767 416.302C216.172 417.136 214.504 417.052 214.42 416.031C213.71 407.341 213.255 398.63 213.056 389.913C213.018 388.248 213.452 386.033 215.113 385.906C216.139 385.826 217.025 386.744 217.287 387.74ZM158.85 370.325C160.078 370.695 161.258 371.536 161.614 372.768C161.97 374 161.16 375.557 159.88 375.638C158.687 375.713 157.776 374.626 156.681 374.15C154.713 373.294 152.505 374.489 150.696 375.643L149.775 376.238C148.039 377.381 146.356 378.665 145.403 380.488C144.427 382.354 144.345 384.547 144.376 386.652C144.397 388.115 144.465 389.6 144.918 390.991C145.899 394.011 148.7 396.273 151.807 396.928C154.914 397.583 158.237 396.734 160.865 394.953L161.38 394.603C161.844 394.297 162.33 394.031 162.876 394.004C163.627 393.968 164.448 394.676 164.193 395.383C164.117 395.595 163.96 395.766 163.802 395.928C159.506 400.341 152.088 401.286 146.824 398.09C145.884 397.52 145.009 396.832 144.299 395.993C142.166 393.473 141.768 389.94 141.709 386.638C141.677 384.852 141.721 383.038 142.229 381.325C143.326 377.623 146.427 374.873 149.65 372.746C152.387 370.941 155.711 369.381 158.85 370.325ZM133.996 362.73L144.706 375.448C144.116 376.086 143.084 376.127 142.288 375.781C141.58 375.474 141.016 374.924 140.484 374.359L134.2 367.6C133.344 374.46 131.268 381.165 128.1 387.309C127.792 387.907 128.665 388.412 129.335 388.481C130.969 388.648 132.622 388.462 134.234 388.142L135.064 387.975C136.366 387.716 137.7 387.513 138.914 387.994C140.387 388.578 141.296 390.722 140.115 391.778C139.386 392.429 138.283 392.348 137.314 392.228L126.883 390.938L126.563 390.892C125.533 390.724 124.401 390.32 124.25 389.328C124.159 388.73 124.492 388.158 124.803 387.639C128.515 381.443 130.989 374.508 132.039 367.362L132.197 366.229C132.401 364.838 132.762 363.328 133.996 362.73ZM498.882 382.712C500.175 383.627 501.394 385.422 500.393 386.648C499.766 387.416 498.559 387.435 497.658 387.022C496.757 386.609 496.057 385.869 495.28 385.254C492.093 382.735 487.306 382.47 483.861 384.621C483.37 384.927 482.882 385.308 482.683 385.851C482.484 386.394 482.704 387.123 483.259 387.287C487.657 385.424 492.901 385.684 497.093 387.975C497.699 388.306 498.336 388.746 498.485 389.42C498.634 390.095 497.91 390.903 497.307 390.566C494.572 389.035 491.307 388.471 488.216 388.997C486.775 389.242 485.366 389.716 483.905 389.762C482.444 389.808 480.846 389.321 480.071 388.082C479.356 386.939 479.526 385.396 480.223 384.242C480.921 383.088 482.065 382.27 483.261 381.648C488.131 379.114 494.401 379.541 498.882 382.712ZM352.968 320.879C342.525 329.658 330.253 336.25 317.17 340.115L316.296 340.369C314.598 340.854 312.46 341.929 312.818 343.659L313.038 344.733C313.69 347.96 314.244 351.247 313.778 354.495C313.276 357.997 311.345 361.503 308.15 362.975L307.856 363.103C302.166 365.445 301.367 373.944 305.098 378.836C308.829 383.729 315.299 385.623 321.411 386.33C339.349 388.405 358.069 382.39 371.442 370.256C376.292 365.855 380.632 360.586 386.637 357.972L371.62 352.475C367.569 350.992 363.465 349.482 359.938 346.996C356.412 344.511 353.472 340.893 352.751 336.64C351.868 331.43 354.365 325.976 352.968 320.879ZM179.739 334.966C179.362 335.133 178.977 335.356 178.796 335.726C178.614 336.097 178.676 336.535 178.74 336.943L182.18 358.632C183.194 365.023 184.619 372.106 189.89 375.86C195.664 379.972 203.594 378.361 210.318 376.013L210.677 375.887C223.194 371.441 235.24 365.253 248.358 363.171C257.777 361.676 267.654 362.316 276.56 358.906C273.302 353.989 266.245 354.015 260.341 354.66L212.109 360.142C208.372 360.567 204.447 361.062 201.413 363.283C200.085 364.255 198.828 365.591 197.184 365.659C195.584 365.725 194.194 363.395 195.448 362.538L195.558 362.47C196.933 361.714 196.84 359.74 196.559 358.196L195.1 350.198C194.363 346.23 193.462 342.192 191.088 338.953C188.525 335.455 183.702 333.204 179.739 334.966ZM512.717 367.382C513.879 368.737 513.929 370.815 513.154 372.423C512.379 374.03 510.911 375.213 509.323 376.027C507.407 377.011 505.297 377.523 503.182 377.961L502.125 378.176C501.711 378.259 501.274 378.341 500.874 378.208C500.54 378.097 500.27 377.847 500.051 377.572C498.961 376.204 499 374.186 499.737 372.6C500.475 371.014 501.796 369.781 503.153 368.678C504.54 367.55 506.049 366.487 507.789 366.074C509.528 365.662 511.552 366.026 512.717 367.382ZM507.013 369.762L506.457 370.137C505.625 370.707 504.822 371.33 504.263 372.161C503.579 373.178 503.341 374.596 504.016 375.618L508.49 373.129C509.219 372.723 509.974 372.294 510.447 371.608C510.919 370.921 511.013 369.896 510.429 369.301C509.552 368.408 508.056 369.069 507.013 369.762ZM435.65 320.801C435.962 320.927 436.173 321.21 436.355 321.499L442.91 332.204C444.081 334.117 446.746 334.33 448.983 334.173C453.272 333.871 457.519 332.995 461.578 331.577C462.258 331.34 462.904 332.206 462.757 332.912C462.611 333.618 462.004 334.121 461.435 334.564L451.591 342.237C450.382 342.152 450.725 340.173 451.706 339.46L451.996 339.258C452.941 338.621 454.087 337.991 454.027 336.896L448.338 338.673C447.252 339.013 446.044 339.346 445.011 338.869C444.324 338.552 443.844 337.93 443.409 337.304L436.181 326.755L436.056 335.993C436.046 336.75 436.014 337.572 435.533 338.157C435.191 338.573 434.681 338.796 434.171 338.984L424.199 342.562C426.862 345.225 431.847 342.423 435.034 344.43C437.217 345.805 437.59 348.869 437.119 351.406C436.648 353.942 435.568 356.411 435.708 358.987C437.528 357.667 438.864 355.695 439.417 353.516C439.64 352.637 439.749 351.703 440.238 350.939C441.585 348.836 444.803 349.264 447.034 350.389C449.264 351.514 451.578 353.134 454.018 352.599L450.478 346.939C450.155 346.422 449.82 345.863 449.849 345.255C449.877 344.646 450.455 344.031 451.038 344.208C451.293 344.285 451.484 344.487 451.653 344.699L459.55 354.936C456.777 356.765 453.117 355.613 449.914 354.73L449.439 354.606C446.315 353.833 442.501 353.756 440.776 356.404C439.56 358.27 438.133 359.998 436.531 361.546C435.856 362.198 435.087 362.847 434.154 362.954C433.222 363.061 432.151 362.354 432.234 361.419L433.152 351.067C433.211 350.397 433.256 349.667 432.883 349.108C432.489 348.518 431.748 348.289 431.065 348.1L422.437 345.717C420.561 345.199 420.547 342.279 421.954 340.935C423.361 339.591 425.434 339.309 427.309 338.789C429.184 338.269 431.212 337.165 431.551 335.248L433.74 322.846C433.928 321.785 434.652 320.396 435.65 320.801ZM203.517 145.94L201.924 147.235C191.307 155.886 180.846 164.957 173.059 176.203C164.883 188.012 159.864 202.656 162.298 216.811C165.845 237.438 184.296 253.866 185.085 274.782C185.19 277.56 188.019 279.289 190.386 280.748C199.727 286.504 206.649 295.641 211.217 305.618C215.642 315.283 218.004 325.755 219.722 336.251L219.886 337.267C220.142 338.867 220.329 340.689 219.297 341.938C218.264 343.188 215.609 342.75 215.712 341.133C216.924 322.116 210.013 302.715 197.05 288.747C193.683 285.119 189.772 281.756 185.03 280.335C184.728 287.66 182.262 295.124 177.041 300.271C171.82 305.418 163.584 307.769 156.825 304.929C150.067 302.089 145.932 293.513 148.974 286.843C151.522 281.255 157.85 278.432 163.875 277.242C169.787 276.075 175.915 276.014 181.849 277.064C182.647 277.205 182.995 276.089 182.979 275.278C182.55 253.538 162.454 236.517 159.816 214.933C158.375 203.138 162.399 191.264 168.24 180.915C175.91 167.324 186.822 155.577 199.811 146.927L200.151 146.706C201.191 146.051 202.404 145.493 203.517 145.94ZM269.685 256.668C266.777 258.538 266.852 262.689 266.611 266.139C266.281 270.87 264.654 275.605 261.482 279.131C258.309 282.656 253.489 284.822 248.784 284.23C247.566 284.077 247.196 285.839 247.356 287.055C250.091 307.907 262.74 328.378 282.4 335.844C294.419 340.409 307.996 339.802 320.249 335.912C332.212 332.114 343.038 325.359 352.933 317.627L353.655 317.06C355.09 315.926 356.533 314.746 357.53 313.213C358.541 311.659 359.039 309.82 359.281 307.982C360.58 298.133 353.998 287.827 344.516 284.863C343.4 284.514 343.659 282.704 344.638 282.065C345.617 281.426 346.878 281.469 347.996 281.128C351.025 280.202 352.418 276.752 353.11 273.661C354.06 269.414 354.326 264.571 351.694 261.105C348.137 256.421 341.221 256.427 335.357 256.876L325.842 257.605C322.558 257.856 318.33 259.014 318.176 262.304C317.844 269.39 314.723 276.448 309.208 280.91C303.693 285.372 295.751 286.915 289.204 284.184C282.761 281.496 278.209 274.482 278.953 267.557L278.993 267.222C279.381 264.292 279.168 261.112 277.452 258.706C275.735 256.301 272.17 255.069 269.685 256.668ZM348.277 145.935C344.034 147.142 339.958 149.087 336.609 151.957C331.928 155.968 328.815 161.765 328.058 167.883C327.79 170.051 328.221 172.846 330.326 173.429C335.469 174.851 340.071 178.15 343.069 182.564C338.207 179.671 332.877 177.566 327.35 176.356L350.711 189.574C352.065 190.34 353.471 191.154 354.323 192.456C355.174 193.758 355.263 195.702 354.093 196.728L352.46 195.457C348.368 192.289 344.184 189.218 339.603 186.821C336.12 184.998 332.443 183.584 328.747 182.237L326.73 181.507C319.887 179.038 312.983 176.554 305.776 175.567C299.086 174.652 292.218 175.058 285.684 176.757L284.395 177.087C275.567 179.321 266.363 181.147 259.065 186.544C254.723 189.755 251.323 194.053 248.095 198.382L247.334 199.415C240.92 208.22 235.059 219.077 238.812 229.18C256.04 227.058 269.462 213.728 285.069 206.13C286.262 205.549 288.229 205.371 288.411 206.685L270.947 217.005C271.431 219.67 270.973 222.497 269.671 224.873C282.431 221.267 294.36 214.757 304.299 205.981L304.931 205.418C306.507 203.999 309.545 202.824 310.217 204.837L309.362 205.314C306.228 207.077 303.11 209.005 300.95 211.86C298.593 214.974 297.655 219.501 299.744 222.801L321.79 209.82C322.686 209.293 323.663 208.747 324.696 208.855C325.73 208.964 326.699 210.077 326.252 211.015L325.503 211.172C323.123 211.677 320.71 212.311 318.857 213.861C316.809 215.574 315.748 218.786 317.27 220.98C320 224.915 322.215 229.207 323.841 233.712C323.877 231.742 326.562 230.735 328.332 231.6C330.102 232.465 331.039 234.417 331.68 236.279C333.515 241.608 334 247.396 333.077 252.956C338.621 254.914 345.123 252.602 350.456 255.078C355.406 257.376 357.827 263.338 357.483 268.784C357.139 274.231 354.566 279.267 351.817 283.981C359.498 289.932 363.602 300.183 362.148 309.79C363.488 309.571 364.619 308.416 364.809 307.072L367.855 308.994C363.091 311.687 359.701 316.685 358.961 322.108C379.895 302.519 386.845 271.471 383.824 242.961L383.706 241.898C382.509 231.602 379.661 220.87 371.918 214.051C376.069 211.657 381.394 212.599 385.835 210.802C390.032 209.104 392.916 205.168 394.864 201.081C401.377 187.419 399.134 170.036 389.367 158.474C379.6 146.912 362.836 141.797 348.277 145.935ZM279.842 317.277C280.503 317.387 281.252 317.61 281.511 318.227C281.924 319.213 280.766 320.114 279.765 320.487C278.311 321.029 276.784 321.376 275.239 321.515C273.942 321.633 272.307 321.382 271.906 320.144C271.642 319.329 272.1 318.414 272.793 317.912C273.486 317.41 274.363 317.24 275.214 317.148C276.753 316.981 278.315 317.025 279.842 317.277ZM256.162 303.149C260.717 308.503 267.844 311.338 274.874 311.394C281.904 311.449 288.801 308.908 294.637 304.988L295.128 304.659C295.869 304.166 296.638 303.703 297.508 303.552C298.57 303.367 299.834 303.813 300.195 304.829C294.091 310.014 286.439 313.438 278.463 314.162C270.486 314.885 262.225 312.839 255.717 308.172C254.543 307.329 253.329 306.221 253.28 304.777C253.232 303.333 255.225 302.049 256.162 303.149ZM160.67 280.471C157.502 281.482 154.314 282.962 152.316 285.62C149.347 289.568 149.866 295.558 153.073 299.315C156.279 303.072 161.701 304.572 166.539 303.574C171.376 302.575 175.576 299.311 178.295 295.187C181.013 291.063 182.344 286.139 182.747 281.216C182.815 280.391 182.665 279.298 181.851 279.147C174.825 277.84 167.478 278.299 160.67 280.471ZM272.925 261.235C273.057 262.37 272.618 263.484 272.214 264.554C269.933 270.596 268.544 276.975 268.107 283.42C268.036 284.464 267.996 285.546 268.379 286.52C268.74 287.44 269.579 288.24 270.552 288.295L270.725 288.296C271.611 288.265 272.031 289.585 271.474 290.274C270.917 290.964 269.872 291.041 269.022 290.788C267.278 290.269 266.028 288.646 265.522 286.898C265.016 285.15 265.145 283.284 265.399 281.482C266.258 275.373 268.488 269.449 268.598 263.281C268.628 261.54 268.984 259.194 270.72 259.055C271.859 258.965 272.793 260.099 272.925 261.235ZM294.603 240.616C290.98 241.362 288.214 244.334 286.336 247.52C282.486 254.047 281.39 262.141 283.363 269.457C284.249 272.742 285.764 275.917 288.14 278.352C290.516 280.787 293.818 282.422 297.22 282.365C299.594 282.326 301.899 281.483 303.962 280.306C310.85 276.376 315.226 268.411 314.85 260.49C314.473 252.568 309.362 245.054 302.132 241.795C299.777 240.734 297.133 240.096 294.603 240.616ZM244.601 237.369C238.128 239.767 233.949 246.489 233.058 253.335C232.168 260.181 234.088 267.105 236.825 273.443C237.562 275.15 238.4 276.885 239.815 278.09C241.23 279.296 243.373 279.836 244.981 278.903C245.729 278.469 246.429 279.485 246.997 280.138C248.129 281.439 250.12 281.549 251.81 281.212C257.381 280.098 261.662 275.231 263.395 269.821C265.07 264.591 264.712 258.931 263.722 253.519L263.618 252.96C262.574 247.503 260.216 241.369 254.902 239.744C252.116 238.892 248.755 239.39 246.602 237.428C246.082 236.954 245.261 237.124 244.601 237.369ZM347.472 260.509C349.662 262.935 348.766 266.702 347.67 269.815L347.581 270.066C347.143 271.287 346.689 272.537 345.851 273.527C345.013 274.517 343.697 275.208 342.427 274.944C341.157 274.679 340.168 273.207 340.701 272.025C341.363 270.557 343.614 270.482 344.426 269.092L342.231 268.885C340.754 268.746 339.163 268.558 338.068 267.556C336.973 266.553 336.836 264.432 338.167 263.775C339.089 263.32 340.2 263.766 341.054 264.34C341.908 264.914 342.725 265.64 343.742 265.796C344.759 265.953 345.996 265.154 345.786 264.147C345.495 262.745 346.214 261.192 347.472 260.509ZM297.389 269.98C297.563 270.944 297.626 271.967 297.265 272.879C296.904 273.79 296.024 274.552 295.045 274.511C293.529 274.448 292.716 272.702 292.452 271.207C292.124 269.36 292.636 266.819 294.506 266.682C296.106 266.564 297.105 268.4 297.389 269.98ZM250.666 266.06C251.421 267.161 251.314 268.632 251.014 269.933C250.63 271.597 249.665 273.454 247.965 273.628C246.431 273.785 245.121 272.412 244.619 270.953C244.006 269.173 244.304 266.999 245.693 265.729C247.083 264.459 249.601 264.508 250.666 266.06ZM252.08 247.274C252.759 247.586 253.237 248.44 252.893 249.103L252.237 249.275C248.503 250.272 244.521 251.659 242.738 255.035C242.31 255.844 242.033 256.737 241.501 257.482C240.968 258.226 240.071 258.818 239.176 258.629C238.155 258.415 237.564 257.24 237.673 256.203C237.782 255.165 238.414 254.261 239.09 253.467C241.839 250.237 245.713 247.984 249.879 247.191C250.613 247.052 251.402 246.962 252.08 247.274ZM299.809 249.139C300.926 250.039 301.775 251.238 302.903 252.123C303.857 252.871 305.061 253.462 305.495 254.593C305.928 255.725 304.625 257.323 303.679 256.565C301.21 254.587 298.47 252.948 295.559 251.71C294.239 251.148 294.539 248.928 295.826 248.295C297.113 247.663 298.693 248.239 299.809 249.139ZM285.978 242.042C283.545 242.845 281.816 245.405 281.981 247.962C282.911 247.486 283.62 246.596 283.877 245.582L283.84 245.48C284.92 244.626 285.69 243.389 285.978 242.042Z" fill="#00160A"/>
<path fill-rule="evenodd" clip-rule="evenodd" d="M148.868 548.467C149.847 548.476 150.748 548.929 151.603 549.428L152.065 549.703C157.307 552.841 162.839 555.496 168.567 557.622C169.355 557.914 169.11 559.236 168.343 559.577C167.576 559.918 166.69 559.614 165.908 559.31L148.991 552.727C147.908 552.306 146.652 551.664 146.557 550.507C146.462 549.353 147.711 548.457 148.868 548.467Z" fill="#E7EAEE"/>
<path fill-rule="evenodd" clip-rule="evenodd" d="M121.9 530.036L174.232 548.6L174.561 548.722C175.944 549.263 177.44 550.188 177.292 551.617C177.171 552.78 175.883 553.531 174.714 553.491C173.725 553.458 172.811 553.019 171.936 552.534L171.463 552.268C164.166 548.13 156.511 544.715 148.659 541.766C139.765 538.424 130.62 535.679 121.46 533.151C120.059 532.764 118.284 531.513 119.087 530.302C119.65 529.453 120.939 529.695 121.9 530.036Z" fill="#E7EAEE"/>
<path d="M525 594.078C525 588.578 526.938 583.891 530.812 580.016C534.719 576.109 539.422 574.156 544.922 574.156H551.953C554.859 574.156 557.344 573.125 559.406 571.062C561.469 569 562.5 566.516 562.5 563.609C562.5 560.703 561.469 558.219 559.406 556.156C557.344 554.094 554.859 553.062 551.953 553.062H544.922C542.016 553.062 539.531 554.094 537.469 556.156C535.406 558.219 534.375 560.703 534.375 563.609C534.375 564.891 533.906 566 532.969 566.938C532.062 567.844 530.969 568.297 529.688 568.297C528.406 568.297 527.297 567.844 526.359 566.938C525.453 566 525 564.891 525 563.609C525 558.109 526.938 553.422 530.812 549.547C534.719 545.641 539.422 543.688 544.922 543.688H551.953C557.453 543.688 562.141 545.641 566.016 549.547C569.922 553.422 571.875 558.109 571.875 563.609C571.875 569.109 569.922 573.812 566.016 577.719C562.141 581.594 557.453 583.531 551.953 583.531H544.922C542.016 583.531 539.531 584.562 537.469 586.625C535.406 588.688 534.375 591.172 534.375 594.078V604.625H567.188C568.469 604.625 569.562 605.094 570.469 606.031C571.406 606.938 571.875 608.031 571.875 609.312C571.875 610.594 571.406 611.703 570.469 612.641C569.562 613.547 568.469 614 567.188 614H529.688C528.406 614 527.297 613.547 526.359 612.641C525.453 611.703 525 610.594 525 609.312V594.078Z" fill="black"/>
</svg>
