<svg width="750" height="750" viewBox="0 0 750 750" fill="none" xmlns="http://www.w3.org/2000/svg">
<path fill-rule="evenodd" clip-rule="evenodd" d="M243.443 647.445C242.516 648.008 241.318 647.823 240.605 647.005C236.32 643.252 231.485 640.222 227.082 636.611C224.728 634.655 222.219 632.893 219.579 631.344C217.648 630.231 216.198 628.492 214.35 627.223L213.836 626.89C211.574 625.508 209.739 623.514 207.559 621.964C205.719 620.655 204.396 618.715 202.552 617.313C199.895 615.242 197.343 613.039 194.908 610.711C193.166 609.409 191.677 607.799 190.514 605.962C190.252 605.437 189.773 605.325 189.426 605.001C187.891 603.655 186.44 602.216 185.081 600.693C182.294 597.389 179.192 594.355 176.46 591.014C174.479 588.588 172.363 586.294 170.313 583.933C168.343 581.66 166.418 579.348 164.537 576.998C160.115 571.512 156.017 565.772 152.266 559.807C149.387 555.101 146.777 550.236 144.447 545.236C142.394 541.26 140.609 537.152 139.102 532.939C138.01 529.538 136.417 526.274 135.65 522.836C134.926 519.592 134.021 516.368 133.222 513.166C131.37 505.751 129.82 498.285 128.571 490.767C127.83 486.342 127.18 481.873 126.373 477.475C125.425 472.315 125.07 467.087 124.139 461.927C123.596 458.905 123.434 455.705 123.078 452.604C122.733 449.601 122.81 446.568 122.277 443.589C121.849 440.598 121.574 437.589 121.451 434.571C121.244 431.769 120.372 428.824 121.297 425.951C119.847 423.94 120.842 421.61 120.608 419.453C120.374 417.297 120.283 415.102 119.924 413.005C119.554 410.843 119.237 408.63 118.933 406.482C118.313 402.121 117.28 397.844 116.655 393.51C116.271 390.865 115.121 388.527 114.522 385.988C113.348 381.131 111.693 376.403 109.583 371.873C108.699 370.071 108.095 368.145 107.791 366.161C107.597 364.65 106.189 364.007 105.774 362.63C105.104 360.402 104.058 358.289 103.214 356.114C103.065 355.375 102.529 354.774 101.812 354.542L102.389 352.632C102.082 351.853 101.767 352.777 101.346 352.53C100.916 351.67 100.23 350.851 100.352 349.678C100.47 348.575 99.2185 348.249 98.9517 347.222C98.3629 344.991 95.8989 343.472 96.4153 340.771C94.722 339.238 94.1479 337.016 92.995 335.149C92.3878 334.277 92.1109 333.219 92.2087 332.165L92.2379 331.922C92.4303 330.892 90.399 330.773 91.1835 329.458C88.5399 326.63 88.4087 322.747 87.3462 319.362C85.643 313.931 83.516 308.599 82.7241 302.841C82.3271 299.961 81.0792 297.083 80.6198 294.156C79.5854 287.576 78.1005 281.057 77.8561 274.353C77.7565 271.583 77.0396 268.836 76.966 266.063L76.8818 262.859C76.7626 258.052 76.6947 253.242 76.9343 248.435C76.8183 247.32 77.0169 246.195 77.5076 245.187C78.2288 244.069 77.0153 243.058 77.1203 241.827C77.2379 240.366 78.052 239.106 77.9083 237.508C77.8291 236.627 78.2939 235.317 78.2046 234.295C77.9158 230.974 79.5666 227.892 79.1996 224.58C79.2686 223.336 79.6141 222.124 80.2109 221.031C81.5331 217.266 81.063 213.1 82.8964 209.519C83.7715 207.747 84.2223 205.799 84.2157 203.827L84.2016 203.065C84.1949 202.501 84.2202 201.957 84.5527 201.637C85.9443 200.299 85.8994 198.409 86.4785 196.797C87.0984 195.069 87.1124 193.147 87.9695 191.427C89.0156 189.78 89.7608 187.96 90.1704 186.052C90.4732 182.748 92.0832 180.018 93.2869 177.113C93.8875 175.662 93.9274 173.817 95.785 172.986C96.7298 172.563 94.9335 171.103 96.2889 170.479L96.4464 170.415C97.4212 170.071 97.5252 169.255 97.4462 168.243C97.3738 167.317 99.0258 166.977 98.7438 165.994C98.4617 165.01 98.4951 163.656 99.0407 163.58C100.405 163.384 99.3411 161.747 100.471 161.671C100.588 161.632 100.68 161.541 100.72 161.425C101.69 158.088 104.368 155.682 105.508 152.378C106.276 150.42 107.406 148.625 108.84 147.087C110.07 145.575 111.172 143.964 112.135 142.27C113.884 139.444 116.407 137.271 118.11 134.452C118.571 133.689 120.641 134.337 119.86 132.466C121.172 132.248 121.023 130.9 121.661 130.187C122.315 129.679 123.043 129.274 123.82 128.988C124.594 127.268 125.762 125.754 127.23 124.569C129.914 121.82 132.77 119.243 135.78 116.854L138.263 114.893C141.582 112.281 144.978 109.751 149.008 108.257C150.044 107.873 149.801 106.755 150.673 106.327C155.735 103.804 160.522 100.775 166.061 99.1633C168.378 98.4872 170.536 96.9426 172.908 96.2323C177.67 94.805 182.201 92.7477 187.235 91.999C190.215 91.5574 193.236 90.6244 196.274 90.096C202.549 88.8215 208.955 88.3072 215.354 88.5643L219.284 88.8162C222.778 89.0408 226.271 89.2963 229.75 89.8116C231.396 90.0558 232.876 90.853 234.408 90.9297C235.901 91.0025 237.363 91.3838 238.702 92.0494C239.762 92.5585 240.876 91.7636 241.986 92.4923C242.806 93.2328 243.934 93.5208 245.002 93.2742L245.215 93.2177C245.843 92.9879 246.856 93.7963 247.689 94.1455C248.924 94.5454 250.113 95.0726 251.238 95.7186C252.093 96.3141 253.525 95.1378 253.913 96.7254C255.252 96.0177 256.251 97.0008 257.349 97.4282L257.5 97.4829C258.603 97.855 259.656 98.378 260.731 98.8345L264.316 100.356C265.317 100.958 266.408 101.397 267.548 101.656C269.667 101.78 271.345 103.082 273.388 103.478C275.643 104.091 277.815 104.981 279.852 106.128C281.69 107.005 283.8 106.577 285.632 107.651C287.355 108.824 289.303 109.626 291.352 110.006C293.454 110.214 295.208 111.563 297.085 111.677L297.439 111.684C299.84 111.634 301.451 113.348 303.547 113.579C308.117 114.08 312.371 116.016 316.845 116.605C322.489 117.347 328.004 118.785 333.715 119.256C337.426 119.562 341.164 119.751 344.879 120.059C348.601 120.222 352.33 120.068 356.026 119.6C360.655 119.139 365.239 118.306 369.733 117.108C374.272 115.954 378.583 114.124 383.083 112.903C385.136 112.346 387.04 111.425 389.125 110.926C391.37 110.39 393.409 108.976 395.656 108.431C401.278 107.067 406.437 104.192 412.237 103.455C418.924 100.538 426.236 100.028 433.176 98.0706C436.403 97.1571 439.861 97.0904 443.235 96.6732L443.957 96.578C449.929 95.7452 455.944 95.5183 461.959 95.2344C467.478 95.0188 473.006 95.1667 478.505 95.6771C482.465 96.0114 486.41 96.5379 490.373 96.7978C491.98 96.9043 493.33 98.29 495.041 97.6062C498.341 99.1622 502.183 98.6567 505.451 100.334C507.871 100.058 509.882 101.284 511.885 102.28C513.414 103.044 515.109 102.318 516.614 103.31C517.961 104.347 519.557 105.009 521.242 105.231C524.093 105.295 526.329 106.741 528.762 107.725C534.416 110.014 540.03 112.401 545.606 114.886C547.432 115.701 549.61 115.895 550.988 117.647C552.198 119.184 554.605 118.779 555.748 120.544C556.166 121.186 557.011 120.233 557.713 120.787C559.082 121.867 561.121 121.673 562.275 123.39C563.13 124.661 565.236 124.275 566.164 125.791L566.283 126.01C566.798 127.082 568.999 125.157 569.16 127.371C571.287 127.917 572.867 129.41 574.646 130.556C576.12 131.502 578.064 131.457 579.255 133.099C580.27 134.497 582.736 134.035 583.483 135.995C586.073 136.473 587.642 138.755 590.023 139.702C591.812 140.526 593.483 141.586 594.99 142.854C597.409 144.694 599.884 146.462 602.39 148.167C603.286 148.794 604.148 149.47 604.969 150.193C605.432 150.586 605.439 151.278 606.148 151.571C610.633 153.43 614.079 156.847 617.646 159.934C619.712 161.512 621.648 163.253 623.436 165.139L624.027 165.773C624.537 166.398 625.742 166.874 626.144 167.688C627.266 169.956 629.3 171.327 631.088 172.885L631.384 173.147C632.394 174.011 633.273 175.018 633.994 176.135C634.13 176.348 634.129 176.757 634.3 176.832C637.477 178.24 638.974 181.338 641.175 183.707C643.305 185.998 645.008 188.685 647.19 190.914C651.588 195.409 695.966 265.842 700.361 277.421L701.618 280.735C702.872 284.054 704.102 287.391 705.181 290.764L706.1 293.635C707.016 296.511 707.907 299.403 708.633 302.313L709.605 306.197C711.54 313.969 713.4 321.765 714.763 329.677C715.977 336.736 716.761 343.831 717.563 350.935C718.075 355.496 718.386 360.041 718.518 364.62C718.729 371.936 718.777 379.254 718.663 386.572C718.545 393.461 716.953 400.191 717.205 407.066C715.557 410.971 716.54 415.402 714.761 419.279C715.195 421.424 714.135 423.385 713.712 425.349C713.276 427.378 713.356 429.598 712.177 431.523C711.639 432.398 712.302 433.68 711.632 434.745C710.951 435.61 710.692 436.734 710.925 437.81C709.429 438.203 710.906 439.475 710.171 440.282C709.377 441.158 708.898 442.274 708.81 443.452C708.755 446.116 706.843 448.247 706.691 450.635C706.542 453.079 705.003 454.901 704.628 457.049L704.572 457.455C704.279 460.309 701.894 462.077 701.356 464.731C701.309 464.964 700.72 465.082 700.378 465.26C700.369 465.877 701.055 465.858 701.442 466.407C700.578 466.927 699.789 467.564 699.099 468.299C698.486 469.367 697.986 470.496 697.606 471.667L699.078 474.466C698.126 475.752 698.145 477.077 697.011 478.017C696.517 478.427 696.485 479.943 696.255 480.953C695.952 482.28 694.095 482.775 694.322 483.904C694.428 485.176 694.097 486.446 693.385 487.506C689.016 497.92 684.603 508.316 680.147 518.693C679.674 519.806 679.65 521.307 678.104 521.735C679.378 523.621 676.832 523.752 676.569 525.023C676.16 526.181 675.501 527.236 674.638 528.111C673.336 529.803 672.839 532.1 671.914 534.103C671.507 535.562 670.696 536.877 669.575 537.896C668.453 538.713 668.287 540.452 667.329 541.708C666.025 543.2 664.926 544.86 664.06 546.642C663.661 547.963 662.9 549.144 661.862 550.053C660.958 550.755 661.274 552.596 659.694 552.967C658.854 555.321 657.064 557.014 655.619 558.951L655.352 559.317C651.758 564.323 647.867 569.109 643.7 573.649C640.228 577.476 636.82 581.362 633.312 585.155C632.172 586.377 630.977 587.586 629.76 588.723C625.487 592.941 620.984 596.92 616.271 600.642C611.999 603.827 607.866 607.213 603.44 610.22C601.087 611.82 599.021 613.929 596.705 615.661C591.246 619.749 585.687 623.683 579.927 627.331C575.004 630.74 569.763 633.664 564.276 636.062C562.798 636.639 561.489 637.638 560.042 638.312C558.325 638.899 556.651 639.608 555.035 640.432C553.099 641.703 550.887 642.339 548.955 643.492C547.455 644.387 545.486 643.379 544.198 645.236C543.26 646.588 540.814 645.601 539.655 647.169C537.295 646.833 535.798 648.916 533.536 649.288L533.236 649.327C530.884 649.544 528.648 651.021 526.362 651.945C524.127 653.004 521.824 653.912 519.468 654.663C515.098 655.775 511.112 657.942 506.823 659.13C502.733 660.261 498.874 662.292 494.582 662.568C493.568 662.632 493.598 663.523 492.864 663.771C492.1 664.032 491.383 663.644 490.676 663.975C487.773 665.217 484.777 666.224 481.713 666.987C477.406 668.213 473.053 669.321 468.768 670.578C462.11 672.422 455.359 673.913 448.544 675.047C444.117 675.854 439.661 676.505 435.219 677.203L429.024 678.18C425.927 678.667 422.827 679.141 419.724 679.56C415.776 680.09 411.798 680.354 407.844 680.839C404.715 681.217 401.592 681.728 398.476 682.237C394.168 682.942 389.828 683.495 385.529 684.171C379.435 685.095 373.295 685.679 367.136 685.918C364.019 686.13 360.892 686.144 357.774 685.959C356.037 685.808 354.292 685.767 352.55 685.834L351.679 685.877C347.626 686.15 343.752 685.328 339.8 684.991C338.585 684.882 337.465 684.515 336.328 684.294L335.839 684.209C334.86 684.062 333.918 683.845 332.966 683.639L332.25 683.488C328.871 682.801 325.611 681.524 322.142 681.28L321.489 681.247C321.241 681.246 320.997 681.187 320.776 681.075C317.387 679.158 313.403 679.014 309.89 677.402L309.276 677.102C306.017 675.409 302.105 675.43 298.895 673.49C296.438 673.891 294.613 672.04 292.426 671.644C286.777 670.62 281.831 667.82 276.628 665.683L275.948 665.408C270.519 663.259 265.189 660.855 259.804 658.596C256.116 656.785 252.582 654.676 249.238 652.29C248.538 651.625 247.755 651.053 246.909 650.589C245.361 650.078 244.102 648.936 243.443 647.445Z" fill="#64FCD9"/>
<path fill-rule="evenodd" clip-rule="evenodd" d="M322.103 343.184C318.3 358.806 308.823 370.987 294.123 380.843C297.879 369.95 302.733 357.205 306.489 346.312C302.87 353.743 296.346 361.032 289.085 364.993C293.66 348.599 303.253 335.564 303.253 314.784C303.253 307.312 295.151 301.541 295.468 298.502C295.788 295.428 297.426 292.678 298.7 289.861C305.825 274.099 324.665 349.648 322.103 343.184Z" fill="white"/>
<path fill-rule="evenodd" clip-rule="evenodd" d="M612.556 206.676C612.381 206.658 612.207 206.637 612.033 206.613C612.24 206.369 612.411 206.386 612.556 206.676ZM497.571 441.354C496.848 441.974 496.127 442.591 495.41 443.206C494.815 443.206 492.449 439.191 489.158 433.609C486.127 428.466 482.312 421.994 478.376 416.106C474.938 410.961 471.177 406.324 468.48 402.999C466.028 399.975 464.455 398.036 464.803 397.785C472.395 392.321 480.31 387.246 488.219 382.174C500.996 373.982 513.758 365.799 525.121 356C555.47 329.829 576.59 296.956 589.234 268.748C599.9 244.953 605.654 226.148 608.863 215.658C610.441 210.502 611.404 207.355 612.033 206.613C605.398 205.702 599.503 200.593 597.713 194.131C595.877 187.499 598.48 179.867 603.988 175.74C610.145 171.125 612.148 162.827 612.765 155.159C612.892 153.578 612.981 151.983 613.069 150.386C613.412 144.234 613.757 138.047 616.295 132.491C617.287 130.318 618.994 128.055 621.383 128.001C625.196 127.915 626.564 132.956 626.716 136.766L627.401 153.846C629.009 150.984 633.733 151.695 635.664 154.35C637.595 157.005 637.549 160.563 637.424 163.843C638.323 156.562 641.233 149.54 645.749 143.757C647.166 141.943 649.298 140.078 651.493 140.773C653.814 141.508 654.385 144.484 654.465 146.916C655.161 168.019 648.843 189.295 636.742 206.6C634.407 209.939 633.143 213.807 632.308 217.823C632.617 220.637 632.755 223.672 632.413 226.204C628.513 255.088 622.029 283.623 613.063 311.356C607.729 327.856 601.362 344.355 590.659 358C585.015 365.197 578.278 371.451 571.542 377.637C550.898 396.598 525.817 418.061 503.618 437.058C500.611 439.632 497.657 442.16 494.774 444.631C494.621 444.631 495.63 443.49 497.571 441.354Z" fill="white"/>
<path d="M273.288 536.681C275.035 541.651 279.427 548 279.427 548C279.427 548 248.861 591.184 237.217 615.855C226.396 638.784 215.469 691.875 181.942 660C197.909 614.827 213.984 569.413 237.217 527.503C247.784 508.442 257.015 501.677 257.015 501.677C257.015 501.677 267.179 519.298 273.288 536.681Z" fill="white"/>
<path fill-rule="evenodd" clip-rule="evenodd" d="M306.781 280.473C304.517 282.411 306.463 286.2 308.943 287.853C311.424 289.506 314.645 290.759 315.496 293.613C311.716 293.844 308.303 290.648 304.539 291.071C300.378 291.538 297.922 296.497 298.722 300.602C299.521 304.707 302.592 307.97 305.765 310.7C310.708 314.955 316.238 318.531 322.149 321.294C324.312 322.305 326.713 325.363 324.577 326.432C322.59 325.296 320.602 324.16 318.615 323.024C321.934 333.338 325.358 343.862 331.84 352.55C338.321 361.238 348.53 367.912 359.361 367.287C361.448 367.167 364.469 367.616 364.272 369.695C362.868 370.02 361.463 370.346 360.059 370.672C364.398 374.36 370.587 375.262 376.204 374.312C381.822 373.362 387.012 370.772 392.046 368.107C402.142 362.761 412.221 356.8 419.559 348.05C424.594 342.045 428.147 334.939 431.073 327.673C440.331 304.677 443.656 279.328 440.641 254.727C440.489 253.492 439.74 251.855 438.554 252.239C409.819 261.543 377.427 258.982 350.517 245.278C344.694 242.313 338.908 238.64 335.548 233.041C348.003 240.711 361.583 246.557 375.718 250.335C389.575 254.039 404.136 255.753 418.321 253.62C432.505 251.488 446.316 245.302 456.189 234.91C469.646 220.747 474.58 199.986 472.658 180.556C470.735 161.126 462.628 142.807 452.852 125.898C450.045 137.441 440.084 146.258 428.962 150.467C417.84 154.676 405.631 154.929 393.751 154.348C381.871 153.766 369.953 152.405 358.117 153.58C350.788 154.308 343.072 156.283 338.143 161.749C330.641 170.069 332.294 182.874 334.409 193.87C331.112 192.13 329.294 187.991 330.246 184.391C317.08 186.816 307.499 199.06 304.133 212C300.767 224.94 302.4 238.587 304.055 251.854C304.758 257.485 305.46 263.117 306.162 268.748C306.591 272.186 307.132 275.872 309.503 278.4C316.969 286.359 322.195 296.392 324.435 307.066C332.479 293.328 338.076 278.165 340.885 262.499C341.517 258.971 342.062 255.282 344.094 252.328C346.126 249.374 350.184 247.444 353.394 249.047C340.602 268.552 340.028 294.993 324.217 312.148C321.623 305.632 319.03 299.117 316.437 292.602C314.458 287.63 311.888 282.086 306.781 280.473Z" fill="white"/>
<path fill-rule="evenodd" clip-rule="evenodd" d="M495.181 474.115C485.032 481.364 474.574 488.181 463.844 494.542C461.49 510.952 456.012 542.491 451.789 569.074C449.869 581.163 449.869 591.449 448.226 599.904C444.887 617.097 430.864 626.238 414.006 625.405C315.343 620.533 313.872 672.841 310.088 639.052C306.305 605.263 304.593 571.243 304.968 537.245C297.35 542.858 289.732 548.471 282.115 554.083C279.664 550.407 258.253 515.86 259.341 503.271C260.527 489.545 275.751 469.615 293.136 453.925C303.966 444.149 316.623 437.03 324.222 430.989C327.293 428.548 343.29 414.081 347 399.954C350.882 385.169 342.564 370.711 349.832 368.775C355.567 367.248 359.233 371.779 365.675 374.664C370.627 376.882 378.801 372.94 380.716 376.075C382.631 379.21 380.09 391.598 384.942 396.359C393.936 405.183 412.499 406.661 414.006 406.501C434.097 404.369 455.122 395.226 461.186 397.5C482.028 405.318 497.859 444.575 501.243 458.045C502.016 461.118 502.653 464.437 501.503 467.39C500.37 470.299 497.722 472.299 495.181 474.115Z" fill="white"/>
<path fill-rule="evenodd" clip-rule="evenodd" d="M470.852 404.329C470.227 403.524 469.622 402.814 469.052 402.189C466.293 399.166 464.336 398.122 464.804 397.785C484.661 383.494 506.724 371.865 525.122 356C555.47 329.83 576.59 296.956 589.235 268.749C598.911 247.162 585.151 296.685 553.078 344.333C526.7 383.521 471.93 405.72 470.852 404.329Z" fill="#E7EAEE"/>
<path fill-rule="evenodd" clip-rule="evenodd" d="M495.181 474.115C497.722 472.299 500.37 470.298 501.503 467.389C502.652 464.436 502.016 461.118 501.243 458.045C495.439 434.946 482.571 413.668 464.803 397.785C538.694 361.149 594.62 290.211 612.942 209.883C596.966 255.579 575.527 300.133 543.272 336.259C511.016 372.385 466.962 399.589 418.767 404.704C408.045 405.842 396.086 405.503 388.037 398.339C379.987 391.175 380.236 375.128 390.482 371.773C409.754 365.464 425.156 349.852 433.858 331.558C442.561 313.264 445.045 292.497 443.915 272.275C443.4 263.067 442.888 252.123 450.254 246.562C468.892 232.492 477.811 208.008 476.752 184.7C475.692 161.391 465.724 139.226 452.486 120C448.047 133.634 436.665 144.809 422.939 149.01C411.433 152.532 399.364 151.287 387.251 150.037C381.344 149.427 375.427 148.817 369.56 148.757C351.658 148.575 330.401 157.378 328.409 175.146C327.757 180.963 322.494 184.322 317.295 187.64C315.604 188.719 313.921 189.794 312.404 190.947C298.629 201.427 297.399 221.563 299.545 238.724C299.855 241.198 300.205 243.695 300.558 246.203C302.649 261.087 304.797 276.372 298.699 289.861C298.429 290.459 298.142 291.054 297.855 291.65C296.79 293.86 295.72 296.081 295.467 298.502C294.743 305.453 300.297 310.109 306.013 314.899C309.046 317.442 312.125 320.023 314.334 323.005C319.792 330.372 319.667 340.723 316.344 349.266C313.022 357.809 306.958 364.957 301.002 371.929C307.361 359.401 310.631 345.324 310.444 331.279L293.498 359.699C299.438 345.477 302.793 330.184 303.353 314.785L289.628 363.967C296.889 360.006 302.87 353.744 306.489 346.313L295.221 378.99C307.993 370.675 317.69 357.759 322.103 343.185C324.665 349.648 329.017 355.394 334.547 359.616C353.732 374.259 352.26 408.322 331.885 421.261C291.407 446.966 260.45 485.593 237.217 527.503C213.984 569.414 197.909 614.828 181.942 660C204.948 606.859 229.922 554.568 256.797 503.27C263.061 521.178 271.589 538.294 282.114 554.083L304.967 537.245C304.593 571.243 306.305 605.263 310.088 639.052C314.584 639.528 315.649 632.945 314.94 628.486C308.155 585.79 307.137 542.183 311.921 499.217C307.405 502.096 307.318 508.097 307.237 513.714C307.221 514.777 307.206 515.827 307.161 516.839C306.542 530.763 296.144 543.703 282.666 547.322C275.715 538.532 268.659 529.557 264.703 519.076C260.748 508.594 260.317 496.172 266.309 486.703C282.401 461.272 305.572 440.359 332.531 426.935C344.524 438.576 358.746 447.92 374.198 454.31C379.109 456.341 384.765 458.063 389.604 455.866C392.949 454.347 395.241 451.222 397.235 448.14C404.786 436.466 410.29 423.474 413.421 409.932C427.902 407.878 442.239 404.815 456.294 400.773C461.981 399.138 467.444 403.751 471.288 408.245C483.211 422.184 492.032 438.754 496.935 456.421C497.935 460.022 498.751 463.98 497.237 467.398C496.02 470.146 493.5 472.061 491.045 473.798C481.86 480.297 472.146 486.049 462.03 490.98C463.096 480.012 460.292 468.707 454.223 459.503C463.787 485.155 458.73 512.365 453.621 539.854C449.719 560.853 445.786 582.015 448.317 602.772L463.844 494.541C474.574 488.181 485.032 481.364 495.181 474.115ZM306.781 280.473C311.888 282.086 314.458 287.631 316.437 292.602L324.217 312.148C333.037 302.579 337.115 290.12 341.218 277.588C344.47 267.654 347.737 257.673 353.394 249.048C350.184 247.444 346.126 249.374 344.094 252.329C342.198 255.085 341.597 258.481 341.011 261.789C340.969 262.026 340.927 262.263 340.885 262.5C338.076 278.165 332.479 293.328 324.435 307.067C322.195 296.393 316.969 286.36 309.504 278.401C307.132 275.872 306.591 272.187 306.162 268.748L304.055 251.855C302.4 238.588 300.767 224.941 304.133 212.001C307.499 199.061 317.08 186.816 330.246 184.391C329.294 187.992 331.112 192.131 334.409 193.87C332.294 182.874 330.641 170.07 338.143 161.749C343.072 156.283 350.788 154.308 358.117 153.581C367.172 152.682 376.274 153.267 385.372 153.852C388.166 154.032 390.96 154.211 393.751 154.348C405.631 154.929 417.84 154.677 428.962 150.467C440.085 146.258 450.045 137.442 452.852 125.899C462.628 142.807 470.735 161.126 472.658 180.556C474.581 199.987 469.646 220.747 456.189 234.911C446.316 245.303 432.505 251.488 418.321 253.621C404.136 255.753 389.575 254.04 375.718 250.336C361.583 246.558 348.004 240.711 335.548 233.042C338.908 238.64 344.694 242.313 350.517 245.278C377.427 258.983 409.82 261.544 438.555 252.24C439.74 251.856 440.489 253.492 440.641 254.728C443.656 279.329 440.331 304.678 431.073 327.673C428.147 334.94 424.594 342.046 419.559 348.05C412.221 356.8 402.142 362.761 392.046 368.107C387.012 370.773 381.822 373.363 376.204 374.313C370.587 375.262 364.398 374.36 360.059 370.672L364.272 369.695C364.469 367.616 361.448 367.167 359.361 367.288C348.53 367.913 338.321 361.238 331.84 352.55C325.358 343.863 321.934 333.339 318.615 323.025L324.577 326.433C326.713 325.363 324.313 322.306 322.149 321.294C316.238 318.531 310.708 314.956 305.765 310.701C302.592 307.971 299.521 304.707 298.722 300.602C297.922 296.497 300.378 291.538 304.539 291.071C306.468 290.855 308.306 291.589 310.147 292.325C311.898 293.025 313.654 293.726 315.496 293.614C314.831 291.383 312.718 290.13 310.642 288.9C310.062 288.557 309.485 288.215 308.943 287.853C306.463 286.2 304.517 282.412 306.781 280.473ZM358.104 373.348C363.533 377.43 370.803 378.964 377.422 377.424C374.33 385.292 378.223 394.595 384.728 400.001C391.233 405.407 399.785 407.638 408.142 408.971C407.897 423.794 402.553 438.486 393.213 450.009C390.468 453.397 385.164 452.661 380.998 451.364C364.507 446.232 349.25 437.192 336.837 425.197C337.908 423.641 339.619 422.765 341.336 421.886C342.916 421.077 344.501 420.266 345.599 418.919C346.595 417.699 347.088 416.156 347.525 414.644C351.808 399.803 352.604 383.97 349.831 368.775C352.441 368.816 354.574 370.533 356.659 372.21C357.141 372.599 357.622 372.985 358.104 373.348ZM610.706 179.437C606.433 181.843 601.612 185.115 601.505 190.016C601.414 194.202 604.642 197.008 607.97 199.902C610.32 201.944 612.72 204.03 614.038 206.676C607.192 205.969 601.032 200.763 599.196 194.131C597.359 187.499 599.963 179.867 605.47 175.74C611.627 171.125 613.631 162.827 614.247 155.159C614.374 153.579 614.463 151.985 614.552 150.388L614.552 150.386C614.895 144.234 615.239 138.047 617.777 132.491C618.77 130.318 620.477 128.055 622.865 128.001C626.678 127.915 628.046 132.956 628.199 136.766L628.883 153.846C630.491 150.984 635.215 151.695 637.146 154.35C639.077 157.005 639.032 160.563 638.906 163.843C639.805 156.562 642.716 149.54 647.232 143.757C648.649 141.943 650.78 140.078 652.975 140.773C655.296 141.508 655.868 144.484 655.948 146.916C656.644 168.019 650.326 189.295 638.225 206.6C634.369 212.114 633.431 219.07 632.531 225.751L632.47 226.204C628.57 255.088 622.086 283.623 613.12 311.356C607.786 327.856 601.419 344.355 590.716 358C585.072 365.197 578.335 371.451 571.599 377.637C548.158 399.166 524.347 420.291 500.18 441C498.125 441 499.068 437.668 500.622 436.324C505.867 431.787 511.148 427.283 516.429 422.778C538.616 403.853 560.82 384.914 580.491 363.424C586.224 357.16 591.761 350.65 596.098 343.351C600.272 336.325 603.273 328.673 606.063 320.991C618.329 287.224 626.881 252.11 631.515 216.485C631.848 213.928 632.121 211.158 630.832 208.925C646.917 191.6 654.915 167.062 652.128 143.589C645.864 146.472 644.499 153.47 643.094 160.674C641.917 166.712 640.712 172.895 636.57 176.925L635.951 159.871C635.891 158.234 635.638 156.281 634.167 155.56C631.739 154.37 629.642 157.795 629.396 160.487C629.15 163.179 628.678 166.719 626.011 167.164C626.885 154.755 626.147 142.233 623.822 130.013C617.854 135.573 617.713 144.648 617.584 152.918C617.576 153.428 617.568 153.936 617.559 154.439C617.4 163.096 615.152 173.428 607.03 176.436C608.988 177.959 611.194 176.427 613.448 174.863C614.421 174.187 615.403 173.505 616.378 173.061C621.786 170.595 627.982 177.411 626.47 183.158C624.957 188.905 618.508 192.175 612.564 192.15C613.812 190.073 616.247 188.816 618.586 187.607C621.672 186.013 624.592 184.504 624.407 181.314C624.245 178.54 621.243 176.635 618.464 176.653C615.685 176.672 613.127 178.073 610.706 179.437ZM353.945 279.139C354.017 278.119 355.496 277.968 356.563 278.011C359.847 278.142 363.061 277.178 366.175 276.173L366.616 276.03C369.588 275.069 372.602 274.094 375.733 274.006C379.018 273.913 382.524 274.968 384.492 277.489C384.751 277.821 384.991 278.214 384.934 278.625C384.837 279.328 383.906 279.666 383.189 279.488C382.631 279.35 382.165 279.011 381.702 278.673C381.57 278.577 381.438 278.481 381.305 278.39C377.666 275.907 372.636 276.978 368.451 278.476L368.264 278.543L368.143 278.587C367.93 278.663 367.716 278.741 367.501 278.819L367.495 278.821C363.587 280.237 359.448 281.736 355.493 280.599C354.742 280.383 353.892 279.888 353.945 279.139ZM391.138 327.945C393.635 328.063 396.343 328.123 398.381 326.667C401.223 324.634 401.577 320.554 401.26 317.061C401.073 314.993 400.746 312.939 400.42 310.885C399.97 308.063 399.521 305.241 399.436 302.387C399.289 297.457 400.412 292.185 403.926 288.743C404.12 287.547 402.544 286.69 401.412 287.107C400.279 287.525 399.606 288.679 399.113 289.786C395.743 297.342 396.575 305.897 397.387 314.241V314.241L397.387 314.242L397.387 314.242L397.387 314.243L397.387 314.244L397.388 314.245L397.388 314.246C397.511 315.513 397.634 316.775 397.741 318.028C397.915 320.055 397.895 322.444 396.286 323.678C395.089 324.598 393.521 324.497 391.965 324.397L391.965 324.397C391.455 324.364 390.946 324.332 390.452 324.335C389.417 324.342 388.159 324.732 387.967 325.755C387.697 327.201 389.676 327.875 391.138 327.945ZM384.803 288.015C385.978 287.848 386.977 289.129 386.941 290.338C386.906 291.546 386.144 292.605 385.303 293.458C382.257 296.548 377.847 297.975 373.549 298C369.251 298.024 365.035 296.76 361.065 295.083C360.206 294.721 359.33 294.32 358.695 293.63C358.059 292.939 357.718 291.881 358.107 291.021C358.495 290.16 359.766 289.776 360.41 290.458C363.339 293.556 367.887 294.356 372.108 294.428C375.924 294.494 380.28 293.796 382.384 290.551C382.502 290.369 382.617 290.177 382.734 289.982L382.734 289.982L382.734 289.982C383.269 289.088 383.828 288.153 384.803 288.015ZM435.712 292.735C430.955 296.863 423.595 298.15 417.56 295.91C415.893 295.291 414.262 294.365 413.371 292.911C413.022 292.343 412.799 291.648 413.049 291.036C413.453 290.047 414.905 289.786 415.962 290.169C416.759 290.458 417.406 290.993 418.052 291.528L418.052 291.528L418.052 291.528C418.262 291.702 418.472 291.876 418.687 292.042C422.484 294.959 428.459 295.043 432.348 292.233C432.431 292.174 432.513 292.113 432.596 292.052L432.597 292.051C433.218 291.592 433.867 291.112 434.646 291.1C435.529 291.086 436.359 292.174 435.712 292.735ZM276.432 548C274.625 549.072 273.338 550.815 272.116 552.521C259.583 570.022 248.518 588.567 239.075 607.899C229.534 627.43 221.664 647.72 213.806 667.982C213.14 669.7 212.487 671.689 213.372 673.305C214.596 675.542 218.117 675.435 220.03 673.744C221.942 672.054 222.666 669.433 223.325 666.972C234.305 625.935 252.547 586.937 276.053 551.511C276.771 550.429 277.435 548.826 276.432 548ZM379.759 352.799C379.849 354.825 377.443 355.983 375.457 356C373.298 356.017 370.982 355.224 369.81 353.372C368.638 351.52 369.198 348.552 371.225 347.795L357.221 342.398C356.043 341.944 354.797 341.482 353.555 341.693C353.267 341.742 352.984 341.826 352.702 341.911C352.227 342.053 351.754 342.194 351.264 342.163C350.483 342.115 349.672 341.298 350.029 340.587C350.163 340.321 350.423 340.15 350.671 339.99L355.807 336.699C356.389 336.325 357.03 335.937 357.715 336.009C358.399 336.08 359.028 336.87 358.688 337.48C357.679 339.29 360.193 340.973 362.167 341.496C368.797 343.254 375.48 345.02 382.32 345.404C389.159 345.788 396.249 344.699 402.117 341.089C403.919 339.98 406.155 338.614 407.942 339.748C407.254 341.761 405.23 342.877 403.253 343.968C401.039 345.189 398.882 346.378 398.719 348.76C398.552 351.218 396.398 353.368 393.988 353.483C391.578 353.599 389.237 351.663 388.845 349.232C388.783 348.847 388.33 348.697 387.954 348.63C386.22 348.324 384.391 348.164 382.74 348.786C381.09 349.408 379.679 351.004 379.759 352.799ZM377.224 348.438C376.453 347.47 374.836 347.615 373.974 348.499C373.112 349.383 372.892 350.745 373.024 351.986C374.045 352.571 375.413 352.445 376.315 351.683C377.217 350.921 377.595 349.572 377.224 348.438ZM395.565 349.168C395.69 348.677 396.01 348.241 396.436 347.98C395.907 347.04 394.514 347.408 393.565 347.896C393.061 348.154 392.495 348.5 392.427 349.071C392.343 349.773 393.141 350.312 393.829 350.228C394.516 350.143 395.08 349.654 395.598 349.185L395.565 349.168ZM424.517 282.09C425.172 282.258 425.826 282.427 426.492 282.55C429.944 283.189 433.671 282.549 436.61 280.811C437.393 280.349 436.666 279.141 435.733 279.052C435.011 278.982 434.341 279.277 433.676 279.57C433.481 279.655 433.287 279.741 433.092 279.817C430.585 280.794 427.786 280.231 425 279.672C422.093 279.088 419.2 278.506 416.666 279.679C415.752 280.103 414.897 280.87 414.944 281.788C414.991 282.706 416.44 283.416 417.114 282.72C418.194 281.602 420.034 281.318 421.675 281.501C422.642 281.608 423.579 281.849 424.517 282.09L424.517 282.09Z" fill="#00160A"/>
<path fill-rule="evenodd" clip-rule="evenodd" d="M377.422 377.424C375.479 377.876 373.481 378.063 371.489 377.999C366.694 377.844 361.245 394.462 371.489 413.418C381.555 432.044 400.517 439.495 402.969 433.6C406.21 425.806 408.003 417.41 408.142 408.971C399.785 407.638 391.234 405.406 384.728 400C378.223 394.594 374.33 385.291 377.422 377.424Z" fill="#E7EAEE"/>
<circle cx="341" cy="329" r="6" fill="#FFB61D"/>
<circle cx="417" cy="331" r="6" fill="#FFB61D"/>
<path fill-rule="evenodd" clip-rule="evenodd" d="M352.081 546.308C354.235 543.803 358.611 545.019 361.924 545.898C370.75 548.24 381.468 545.615 388.038 539.502C394.65 533.351 406.792 540.692 415.459 536.903C420.683 534.619 424.913 528.372 430.178 529.982C436.638 531.957 444.628 530.385 449.905 526.177L449.907 524.927L449.926 522.168C444.675 526.806 436.259 528.612 429.511 526.549C424.245 524.939 420.015 531.187 414.791 533.471C406.125 537.259 393.983 529.919 387.371 536.07C380.932 542.06 370.51 544.701 361.789 542.6L360.049 542.148C356.945 541.351 353.314 540.665 351.414 542.876C345.418 549.85 333.549 552.737 324.813 549.346L325.894 552.934L326.411 553.113C335.042 555.962 346.296 553.038 352.081 546.308ZM343.9 507.072C346.176 504.716 350.462 505.985 353.71 506.907C362.361 509.36 373.159 507.089 380.018 501.374C386.921 495.622 398.604 502.952 407.423 499.516C412.74 497.445 417.279 491.545 422.429 493.213C428.748 495.259 452.089 483.023 452.089 483.023C446.196 482.859 428.94 491.966 422.412 490.045L421.948 489.902C416.798 488.234 412.259 494.134 406.943 496.205C398.123 499.641 386.441 492.311 379.538 498.063C372.816 503.664 362.311 505.957 353.752 503.737L352.045 503.262C349.001 502.426 345.428 501.682 343.42 503.761C337.086 510.317 319.795 507.464 316.624 509.355C316.624 509.355 337.789 513.398 343.9 507.072Z" fill="#FFB61D"/>
<path fill-rule="evenodd" clip-rule="evenodd" d="M350.279 620.674C352.433 618.169 356.809 619.385 360.123 620.264C368.948 622.606 379.666 619.981 386.237 613.868C392.849 607.717 404.991 615.058 413.657 611.269C418.881 608.986 423.111 602.738 428.376 604.348C434.837 606.323 442.826 604.751 448.103 600.544L448.105 599.293L448.124 596.534C442.873 601.172 434.457 602.978 427.709 600.915C422.444 599.305 418.214 605.553 412.99 607.837C404.323 611.625 392.181 604.285 385.569 610.436C379.13 616.426 368.708 619.067 359.987 616.966L358.247 616.514C355.143 615.718 351.513 615.031 349.612 617.242C343.616 624.216 331.747 627.103 323.012 623.713L324.092 627.3L324.61 627.479C333.24 630.328 344.494 627.404 350.279 620.674ZM342.099 581.438C344.374 579.082 348.661 580.352 351.909 581.273C360.56 583.726 371.357 581.456 378.217 575.74C385.119 569.988 396.802 577.318 405.622 573.882C410.938 571.811 415.477 565.911 420.627 567.579C426.946 569.626 450.287 557.389 450.287 557.389C444.395 557.226 427.139 566.333 420.61 564.411L420.147 564.268C414.997 562.6 410.457 568.5 405.141 570.571C396.322 574.007 384.639 566.677 377.736 572.429C371.014 578.03 360.51 580.323 351.95 578.103L350.244 577.629C347.199 576.792 343.626 576.048 341.618 578.127C335.284 584.683 317.993 581.831 314.822 583.721C314.822 583.721 335.987 587.764 342.099 581.438Z" fill="#FFB61D"/>
<path fill-rule="evenodd" clip-rule="evenodd" d="M332.145 197.323C337.928 200.884 359.127 161.749 390.693 161.749C457.597 161.749 462.628 142.807 452.852 125.898C450.046 137.441 440.085 146.258 428.963 150.467C417.84 154.676 405.632 154.929 393.752 154.348C381.872 153.766 369.954 152.405 358.118 153.58C350.788 154.308 343.073 156.283 338.144 161.749C330.641 170.069 332.295 182.874 334.41 193.87C331.113 192.13 329.295 187.991 330.246 184.391C317.081 186.816 307.5 199.06 304.134 212C300.768 224.94 302.401 238.587 304.056 251.854C304.758 257.485 305.461 263.117 306.163 268.748C306.163 268.748 309.16 223.384 313.225 212C318.759 196.503 333.436 199.475 332.145 197.323Z" fill="#E7EAEE"/>
<path d="M192 292.078C192 290.797 192.453 289.703 193.359 288.797C194.297 287.859 195.406 287.391 196.688 287.391C197.969 287.391 199.062 287.859 199.969 288.797C200.906 289.703 201.375 290.797 201.375 292.078C201.375 294.984 202.406 297.469 204.469 299.531C206.531 301.594 209.016 302.625 211.922 302.625H218.953C221.859 302.625 224.344 301.594 226.406 299.531C228.469 297.469 229.5 294.984 229.5 292.078C229.5 289.172 228.469 286.688 226.406 284.625C224.344 282.562 221.859 281.531 218.953 281.531H210.75C209.469 281.531 208.359 281.078 207.422 280.172C206.516 279.234 206.062 278.125 206.062 276.844C206.062 275.562 206.516 274.469 207.422 273.562C208.359 272.625 209.469 272.156 210.75 272.156H218.953C221.859 272.156 224.344 271.125 226.406 269.062C228.469 267 229.5 264.516 229.5 261.609C229.5 258.703 228.469 256.219 226.406 254.156C224.344 252.094 221.859 251.062 218.953 251.062H211.922C209.016 251.062 206.531 252.094 204.469 254.156C202.406 256.219 201.375 258.703 201.375 261.609C201.375 262.891 200.906 264 199.969 264.938C199.062 265.844 197.969 266.297 196.688 266.297C195.406 266.297 194.297 265.844 193.359 264.938C192.453 264 192 262.891 192 261.609C192 256.109 193.938 251.422 197.812 247.547C201.719 243.641 206.422 241.688 211.922 241.688H218.953C224.453 241.688 229.141 243.641 233.016 247.547C236.922 251.422 238.875 256.109 238.875 261.609C238.875 267.109 236.938 271.797 233.062 275.672C232.656 276.078 232.234 276.469 231.797 276.844C232.234 277.219 232.656 277.594 233.062 277.969C236.938 281.875 238.875 286.578 238.875 292.078C238.875 297.578 236.922 302.281 233.016 306.188C229.141 310.062 224.453 312 218.953 312H211.922C206.422 312 201.719 310.062 197.812 306.188C193.938 302.281 192 297.578 192 292.078Z" fill="black"/>
</svg>
